<svg width="20" height="20" viewBox="0 0 20 20" fill="none" xmlns="http://www.w3.org/2000/svg">
<path d="M16.875 11.7917V15.3333C16.875 16.245 16.2192 17.03 15.315 17.15C13.5758 17.3808 11.8017 17.5 10 17.5C8.19833 17.5 6.42417 17.3808 4.685 17.15C3.78083 17.03 3.125 16.245 3.125 15.3333V11.7917M16.875 11.7917C17.0729 11.6197 17.2312 11.407 17.3391 11.168C17.447 10.9291 17.5019 10.6697 17.5 10.4075V7.255C17.5 6.35417 16.86 5.57583 15.9692 5.4425C15.0253 5.30118 14.0766 5.19361 13.125 5.12M16.875 11.7917C16.7133 11.9292 16.525 12.0375 16.3142 12.1083C14.2777 12.784 12.1457 13.1273 10 13.125C7.79333 13.125 5.67083 12.7675 3.68583 12.1083C3.48022 12.0399 3.28977 11.9324 3.125 11.7917M3.125 11.7917C2.92712 11.6197 2.7688 11.407 2.66092 11.168C2.55303 10.9291 2.49814 10.6697 2.5 10.4075V7.255C2.5 6.35417 3.14 5.57583 4.03083 5.4425C4.97475 5.30118 5.92341 5.19361 6.875 5.12M13.125 5.12V4.375C13.125 3.87772 12.9275 3.40081 12.5758 3.04917C12.2242 2.69754 11.7473 2.5 11.25 2.5H8.75C8.25272 2.5 7.77581 2.69754 7.42418 3.04917C7.07254 3.40081 6.875 3.87772 6.875 4.375V5.12M13.125 5.12C11.0448 4.95923 8.95523 4.95923 6.875 5.12M10 10.625H10.0067V10.6317H10V10.625Z" stroke="#000" stroke-width="1.5" stroke-linecap="round" stroke-linejoin="round"/>
</svg>
