<svg width="20" height="20" viewBox="0 0 20 20" fill="none" xmlns="http://www.w3.org/2000/svg">
<path fill-rule="evenodd" clip-rule="evenodd" d="M3.37322 4.02981C3.52194 2.09139 5.15365 0.625 7.08131 0.625H12.9088C14.8295 0.625 16.4586 2.0813 16.6142 4.01297C16.9624 8.33384 16.9621 11.6119 16.6122 15.983C16.4574 17.916 14.828 19.375 12.9055 19.375H7.0834C5.15459 19.375 3.52272 17.9069 3.3745 15.9677C3.04257 11.625 3.04153 8.35316 3.37322 4.02981ZM6.66712 1.90916C5.56759 2.09246 4.7064 2.99349 4.61956 4.12544C4.29278 8.38475 4.29375 11.5928 4.62084 15.8724C4.71806 17.1442 5.79187 18.125 7.0834 18.125H12.9055C14.193 18.125 15.2647 17.1502 15.3661 15.8833C15.7108 11.5781 15.711 8.36697 15.3683 4.11337C15.2777 2.98982 14.4231 2.09665 13.3319 1.91067L13.0202 2.40937C12.6205 3.04896 11.9195 3.4375 11.1652 3.4375H8.83475C8.08053 3.4375 7.3795 3.04896 6.97975 2.40937L6.66712 1.90916ZM8.13597 1.875C8.31212 2.07198 8.56553 2.1875 8.83475 2.1875H11.1652C11.4345 2.1875 11.6879 2.07198 11.864 1.875H8.13597Z" fill="#141414"/>
<path d="M8.125 16.25C8.125 15.9048 8.40481 15.625 8.75 15.625H11.25C11.5952 15.625 11.875 15.9048 11.875 16.25C11.875 16.5952 11.5952 16.875 11.25 16.875H8.75C8.40481 16.875 8.125 16.5952 8.125 16.25Z" fill="#141414"/>
</svg>
