<svg width="20" height="20" viewBox="0 0 20 20" fill="none" xmlns="http://www.w3.org/2000/svg">
<path fill-rule="evenodd" clip-rule="evenodd" d="M7.63419 10.1597L0.912018 5.83833L1.58796 4.78687L8.31012 9.10827C9.33953 9.77002 10.6605 9.77002 11.6899 9.10827L18.412 4.78687L19.088 5.83833L12.3658 10.1597C10.9247 11.0862 9.07534 11.0862 7.63419 10.1597Z" fill="#141414"/>
<path fill-rule="evenodd" clip-rule="evenodd" d="M0.625 5.625C0.625 3.89912 2.02411 2.5 3.75 2.5H16.25C17.9759 2.5 19.375 3.89912 19.375 5.625V14.375C19.375 16.1009 17.9759 17.5 16.25 17.5H3.75C2.02411 17.5 0.625 16.1009 0.625 14.375V5.625ZM3.75 3.75C2.71447 3.75 1.875 4.58947 1.875 5.625V14.375C1.875 15.4105 2.71447 16.25 3.75 16.25H16.25C17.2855 16.25 18.125 15.4105 18.125 14.375V5.625C18.125 4.58947 17.2855 3.75 16.25 3.75H3.75Z" fill="#141414"/>
</svg>
