<svg width="146" height="28" viewBox="0 0 146 28" fill="none" xmlns="http://www.w3.org/2000/svg">
<path d="M55.8439 0.35376V27.3435H47.3809V0.35376H55.8439Z" fill="#162883"/>
<path d="M86.5311 27.3437H78.068L69.11 13.7725V27.3437H60.647V0.354004H69.11L78.068 14.1535V0.354004H86.5311V27.3437Z" fill="#162883"/>
<path d="M92.1916 6.68179C93.2718 4.59761 94.8154 2.97748 96.8234 1.82109C98.8314 0.664696 101.195 0.0866699 103.914 0.0866699C106.252 0.0866699 108.343 0.52534 110.185 1.40233C112.027 2.27932 113.527 3.5181 114.683 5.11899C115.84 6.72058 116.608 8.58783 116.99 10.7225H108.069C107.663 9.83313 107.085 9.14046 106.335 8.64481C105.585 8.14916 104.727 7.90133 103.762 7.90133C102.338 7.90133 101.214 8.43543 100.388 9.50292C99.5615 10.5704 99.1489 12.0066 99.1489 13.8107C99.1489 15.6148 99.5618 17.0512 100.388 18.1184C101.214 19.1855 102.338 19.7193 103.762 19.7193C104.727 19.7193 105.585 19.4715 106.335 18.9758C107.085 18.4802 107.663 17.7878 108.069 16.8981H116.99C116.608 19.0331 115.84 20.9011 114.683 22.5023C113.527 24.1039 112.027 25.3427 110.185 26.219C108.342 27.096 106.252 27.5339 103.914 27.5339C101.195 27.5339 98.8314 26.9559 96.8234 25.7995C94.8154 24.6431 93.2718 23.0234 92.1916 20.9395C91.1115 18.8557 90.5715 16.4794 90.5715 13.8107C90.5715 11.1419 91.1115 8.76598 92.1916 6.68179Z" fill="#162883"/>
<path d="M146 0.35376V27.3435H137.537V16.822H129.493V27.3435H121.03V0.35376H129.493V10.0745H137.537V0.35376H146Z" fill="#162883"/>
<path d="M31.4992 27.3437C29.6862 27.308 28.1244 26.4718 27.1307 24.7405C24.9144 20.8786 22.743 16.9907 20.5535 13.1134C19.6514 11.5159 18.7593 9.91262 17.8456 8.32202C16.4342 5.86507 16.7458 3.41842 18.7315 1.50963C21.2242 -0.886565 25.2576 -0.358655 27.0123 2.6238C28.1412 4.54255 29.2098 6.49664 30.3044 8.43529C32.301 11.9714 34.2901 15.512 36.2961 19.043C37.5692 21.284 37.4892 23.4272 35.8938 25.358C34.8256 26.6506 33.3943 27.3296 31.4992 27.3437Z" fill="#F6DF4B"/>
<path d="M14.6407 27.3369C12.6804 27.305 11.1533 26.4403 10.1874 24.7615C7.63675 20.3289 5.14823 15.8605 2.6343 11.4065C2.07378 10.4135 1.52115 9.41538 0.945872 8.43061C-0.28535 6.32205 -0.402053 4.19873 1.11715 2.2237C3.53703 -0.922491 8.16981 -0.703844 10.1095 2.71248C13.2241 8.19823 16.3119 13.6991 19.4159 19.191C21.5365 22.9434 18.9625 27.339 14.6407 27.3369Z" fill="#F6DF4B"/>
<path d="M43.7056 2.62067C43.7276 3.09023 43.5278 3.52718 43.2872 3.948C42.1737 5.89592 41.0643 7.84624 39.9385 9.7873C38.801 11.7483 36.5572 11.7592 35.4114 9.79793C34.2615 7.8301 33.1872 5.81698 32.0075 3.86769C30.9633 2.14254 32.1811 -0.0305515 34.3474 0.0223083C36.6262 0.077914 38.9074 0.0260833 41.1872 0.0387834C42.6542 0.0470213 43.7245 1.14541 43.7056 2.62067Z" fill="#F6DF4B"/>
</svg>
