<svg width="21" height="20" viewBox="0 0 21 20" fill="none" xmlns="http://www.w3.org/2000/svg">
<path d="M15.8033 12.9475L14.625 11.7675L15.8033 10.5892C16.579 9.80661 17.0132 8.74861 17.0108 7.64671C17.0084 6.5448 16.5696 5.48872 15.7904 4.70955C15.0113 3.93039 13.9552 3.49159 12.8533 3.48917C11.7514 3.48676 10.6934 3.92093 9.9108 4.69668L8.73164 5.87584L7.5533 4.69751L8.73164 3.51918C9.82565 2.42516 11.3095 1.81055 12.8566 1.81055C14.4038 1.81055 15.8876 2.42516 16.9816 3.51918C18.0757 4.6132 18.6903 6.097 18.6903 7.64418C18.6903 9.19135 18.0757 10.6752 16.9816 11.7692L15.8033 12.9475ZM13.4458 15.3042L12.2675 16.4825C11.1735 17.5765 9.68964 18.1911 8.14247 18.1911C6.59529 18.1911 5.11149 17.5765 4.01747 16.4825C2.92345 15.3885 2.30884 13.9047 2.30884 12.3575C2.30884 10.8103 2.92345 9.32653 4.01747 8.23251L5.19664 7.05418L6.37497 8.23418L5.19664 9.41251C4.43153 10.1971 4.00636 11.2516 4.01322 12.3475C4.02009 13.4434 4.45844 14.4925 5.23332 15.2675C6.0082 16.0425 7.05721 16.481 8.15311 16.488C9.24901 16.495 10.3036 16.07 11.0883 15.305L12.2675 14.1267L13.4458 15.3042ZM12.8566 6.46501L14.0358 7.64418L8.14247 13.5358L6.96414 12.3575L12.8566 6.46501Z" fill="black"/>
</svg>
