<svg width="20" height="21" viewBox="0 0 20 21" fill="none" xmlns="http://www.w3.org/2000/svg">
<path fill-rule="evenodd" clip-rule="evenodd" d="M17.8792 5.4982C17.9584 5.61837 17.9937 5.76218 17.9791 5.90535C17.9645 6.04852 17.901 6.18228 17.7992 6.28403L10.1384 13.944C10.06 14.0224 9.96221 14.0784 9.85503 14.1065L6.6642 14.9399C6.55873 14.9674 6.44789 14.9668 6.3427 14.9383C6.2375 14.9097 6.14161 14.8541 6.06453 14.777C5.98745 14.7 5.93187 14.6041 5.90331 14.4989C5.87475 14.3937 5.87419 14.2828 5.9017 14.1774L6.73503 10.9874C6.75995 10.8918 6.80578 10.803 6.8692 10.7274L14.5584 3.0432C14.6756 2.92615 14.8344 2.86041 15 2.86041C15.1657 2.86041 15.3245 2.92615 15.4417 3.0432L17.7992 5.39986C17.8283 5.43056 17.8551 5.46343 17.8792 5.4982ZM16.4734 5.84153L15 4.36903L7.9017 11.4674L7.38087 13.4615L9.37503 12.9407L16.4734 5.84153Z" fill="#162883"/>
<path d="M16.3676 15.2849C16.5953 13.3382 16.6681 11.3764 16.5851 9.4182C16.5831 9.37205 16.5907 9.32599 16.6075 9.28296C16.6243 9.23992 16.6499 9.20084 16.6826 9.1682L17.5026 8.3482C17.525 8.32567 17.5534 8.31008 17.5844 8.30332C17.6155 8.29656 17.6478 8.29891 17.6776 8.31009C17.7073 8.32126 17.7332 8.34079 17.7521 8.36633C17.7711 8.39186 17.7822 8.42232 17.7842 8.45403C17.9381 10.7801 17.8796 13.1153 17.6092 15.4307C17.4126 17.1157 16.0592 18.4365 14.3817 18.624C11.4695 18.9463 8.53061 18.9463 5.61839 18.624C3.94172 18.4365 2.58755 17.1157 2.39088 15.4307C2.04597 12.4768 2.04597 9.49289 2.39088 6.53903C2.58755 4.85403 3.94089 3.5332 5.61839 3.3457C7.82876 3.10157 10.0556 3.0422 12.2759 3.1682C12.3077 3.17048 12.3381 3.18182 12.3636 3.20088C12.3892 3.21993 12.4087 3.2459 12.4199 3.27572C12.4312 3.30553 12.4336 3.33794 12.427 3.3691C12.4203 3.40025 12.4049 3.42886 12.3826 3.45153L11.5551 4.2782C11.5227 4.31057 11.484 4.33593 11.4414 4.35271C11.3989 4.36948 11.3533 4.37731 11.3076 4.3757C9.45485 4.31224 7.59998 4.38326 5.75755 4.5882C5.21917 4.64779 4.71659 4.88714 4.33101 5.26758C3.94543 5.64802 3.69936 6.14733 3.63255 6.68487C3.29827 9.54179 3.29827 12.4279 3.63255 15.2849C3.69936 15.8224 3.94543 16.3217 4.33101 16.7022C4.71659 17.0826 5.21917 17.3219 5.75755 17.3815C8.55338 17.694 11.4467 17.694 14.2434 17.3815C14.7818 17.3219 15.2843 17.0826 15.6699 16.7022C16.0555 16.3217 16.3007 15.8224 16.3676 15.2849Z" fill="#162883"/>
</svg>
