<svg width="160" height="160" viewBox="0 0 160 160" fill="none" xmlns="http://www.w3.org/2000/svg">
<path d="M10.57 93.9383C10.541 93.7582 10.5119 93.5716 10.4894 93.3887C9.88249 88.9717 9.81496 84.5003 10.4284 80.0823C10.6282 78.6528 10.8908 77.227 11.2257 75.8135C12.2856 71.4087 14.2901 67.1399 17.0947 63.5323C18.7681 61.3731 20.7313 59.4492 22.9506 57.8715C29.7586 53.0174 37.0505 54.6683 44.9147 53.477C50.4976 52.6253 56.0618 51.3891 61.3146 49.2617C66.5673 47.139 71.4308 44.1159 75.4717 40.1191C80.1138 35.522 81.8229 29.8462 85.4951 24.7857C86.6582 23.1827 88.5145 21.468 91.1709 20.0479C92.4982 19.2065 93.9277 18.4964 95.4313 17.9721C96.9443 17.4421 98.5407 17.0951 100.231 16.9769C108.12 16.4047 116.116 19.9259 122.153 25.0268C128.6 30.4821 133.577 37.1541 137.007 44.4976C139.207 49.1951 140.765 54.1515 141.691 59.2495C143.606 69.8929 142.716 81.0878 138.867 91.5164C127.765 121.601 96.9827 147.089 63.8359 144.936C63.5282 144.914 63.2262 144.891 62.9176 144.863C62.7309 144.856 62.5387 144.837 62.3492 144.818C61.369 144.731 60.386 144.613 59.4123 144.467C56.8619 144.085 54.3462 143.52 51.8952 142.752C49.9677 142.142 48.0851 141.412 46.2541 140.561C44.1408 139.572 42.0848 138.512 40.115 137.378C38.5541 136.49 37.044 135.552 35.5892 134.557C32.2668 132.301 29.2117 129.773 26.4428 126.899C25.1033 125.514 23.8276 124.049 22.6364 122.494C21.0399 120.441 19.5748 118.234 18.2475 115.854C15.6746 111.26 13.5604 106.303 12.1215 101.169C11.4564 98.7925 10.9293 96.3696 10.57 93.9383Z" fill="#C6C6C6"/>
<path d="M133.512 67.3031V123.936C133.512 126.966 131.054 129.424 128.025 129.424H38.088C35.0526 129.424 32.5951 126.966 32.5951 123.936V67.3031C32.5951 65.6269 33.3502 64.1261 34.5283 63.1206C35.4926 62.3045 36.7354 61.8168 38.088 61.8168H128.025C129.371 61.8168 130.608 62.3045 131.566 63.1084C132.761 64.1195 133.512 65.6203 133.512 67.3031Z" fill="black"/>
<path d="M133.512 67.3031L120.058 74.2424L81.669 95.6183L44.32 73.9338L32.5913 67.3031C32.5913 65.6269 33.3464 64.1261 34.5255 63.1206C35.4888 62.3045 36.7326 61.8168 38.0851 61.8168H128.022C129.368 61.8168 130.605 62.3045 131.562 63.1084C132.761 64.1195 133.512 65.6203 133.512 67.3031Z" fill="#162883"/>
<path d="M133.345 124.242L81.6756 96.0198L32.7686 124.238L32.4215 123.632L81.669 95.2197L81.8388 95.3135L133.683 123.628L133.345 124.242Z" fill="#162883"/>
<path d="M130.364 62.3561L82.6867 35.8081L35.7457 62.3561C35.7457 63.9273 36.453 65.3343 37.5579 66.2751C38.4603 67.0405 39.6271 67.4992 40.8963 67.4992H125.217C126.48 67.4992 127.639 67.0405 128.536 66.2882C129.657 65.3408 130.364 63.9338 130.364 62.3561Z" fill="#162883"/>
<path d="M123.984 32.5091C123.984 33.3252 122.757 46.2676 121.26 61.8167C120.868 65.8388 120.463 70.0345 120.058 74.2423L81.669 95.6183L43.3276 73.9337L42.579 61.813L40.6777 30.8704C56.1837 22.1996 123.984 30.408 123.984 32.5091Z" fill="white"/>
<path d="M42.1391 61.8459L40.2144 30.6172L40.4592 30.4784C49.0972 25.6468 72.9213 26.2828 86.3561 27.0894C104.526 28.1822 121.809 30.6172 124.006 31.9051C124.289 32.0693 124.43 32.2747 124.43 32.5092H123.537C123.537 32.6217 123.592 32.6949 123.608 32.7118C122.612 31.8019 106.861 29.2581 87.0306 28.0246C56.104 26.0999 45.0338 29.0752 41.1364 31.1247L43.0255 61.7877L42.1391 61.8459Z" fill="#C6C6C6"/>
<path d="M102.75 59.2692C102.75 59.6106 102.741 59.953 102.724 60.2944C102.707 60.6358 102.682 60.9763 102.648 61.3168C102.615 61.6573 102.573 61.9969 102.524 62.3345C102.473 62.6732 102.415 63.0099 102.348 63.3457C102.281 63.6806 102.206 64.0145 102.123 64.3456C102.04 64.6777 101.949 65.0069 101.849 65.3342C101.751 65.6616 101.643 65.9862 101.528 66.3079C101.413 66.6296 101.29 66.9485 101.159 67.2646C101.028 67.5807 100.89 67.8931 100.743 68.2026C100.597 68.5112 100.443 68.817 100.282 69.1181C100.121 69.4201 99.9525 69.7175 99.7761 70.0111C99.6007 70.3037 99.4178 70.5926 99.2283 70.8769C99.0379 71.1611 98.8409 71.4406 98.6374 71.7154C98.4339 71.9902 98.2237 72.2595 98.0061 72.524C97.7894 72.7885 97.5662 73.0474 97.3364 73.3006C97.1066 73.5539 96.8712 73.8015 96.6292 74.0435C96.3881 74.2855 96.1405 74.521 95.8872 74.7508C95.633 74.9806 95.3741 75.2038 95.1105 75.4205C94.846 75.6372 94.5768 75.8473 94.302 76.0508C94.0272 76.2553 93.7476 76.4523 93.4634 76.6418C93.1792 76.8322 92.8903 77.0151 92.5967 77.1905C92.3031 77.3659 92.0058 77.5347 91.7047 77.6961C91.4026 77.8574 91.0978 78.0112 90.7883 78.1566C90.4797 78.3029 90.1673 78.4418 89.8512 78.5722C89.5351 78.7035 89.2162 78.8264 88.8945 78.9417C88.5718 79.0571 88.2472 79.164 87.9208 79.2635C87.5935 79.3629 87.2633 79.4539 86.9322 79.5373C86.6001 79.6199 86.2671 79.6949 85.9313 79.7615C85.5965 79.8281 85.2588 79.8872 84.9211 79.9369C84.5825 79.9866 84.2439 80.0289 83.9034 80.0626C83.5629 80.0964 83.2224 80.1208 82.88 80.1377C82.5386 80.1545 82.1972 80.163 81.8548 80.163C81.5134 80.163 81.172 80.1545 80.8296 80.1377C80.4882 80.1208 80.1477 80.0964 79.8072 80.0626C79.4667 80.0289 79.1281 79.9866 78.7894 79.9369C78.4508 79.8872 78.1141 79.8281 77.7792 79.7615C77.4434 79.6949 77.1104 79.6199 76.7784 79.5373C76.4463 79.4539 76.1171 79.3629 75.7897 79.2635C75.4624 79.164 75.1378 79.0571 74.8161 78.9417C74.4944 78.8264 74.1755 78.7035 73.8594 78.5722C73.5432 78.4418 73.2309 78.3029 72.9223 78.1566C72.6128 78.0112 72.307 77.8574 72.0059 77.6961C71.7038 77.5347 71.4065 77.3659 71.1138 77.1905C70.8203 77.0151 70.5313 76.8322 70.2471 76.6418C69.9629 76.4523 69.6834 76.2553 69.4086 76.0508C69.1337 75.8473 68.8645 75.6372 68.6 75.4205C68.3355 75.2038 68.0766 74.9806 67.8234 74.7508C67.5701 74.521 67.3225 74.2855 67.0805 74.0435C66.8394 73.8015 66.603 73.5539 66.3742 73.3006C66.1444 73.0474 65.9211 72.7885 65.7035 72.524C65.4868 72.2595 65.2767 71.9902 65.0732 71.7154C64.8696 71.4406 64.6726 71.1611 64.4822 70.8769C64.2928 70.5926 64.1098 70.3037 63.9335 70.0111C63.7581 69.7175 63.5893 69.4201 63.4279 69.1181C63.2675 68.817 63.1137 68.5112 62.9674 68.2026C62.821 67.8931 62.6822 67.5807 62.5518 67.2646C62.4205 66.9485 62.2976 66.6296 62.1823 66.3079C62.0669 65.9862 61.96 65.6616 61.8605 65.3342C61.7611 65.0069 61.6701 64.6777 61.5876 64.3456C61.5041 64.0145 61.4291 63.6806 61.3625 63.3457C61.2959 63.0099 61.2377 62.6732 61.1871 62.3345C61.1373 61.9969 61.0951 61.6573 61.0614 61.3168C61.0285 60.9763 61.0032 60.6358 60.9863 60.2944C60.9694 59.953 60.961 59.6106 60.961 59.2692C60.961 58.9268 60.9694 58.5854 60.9863 58.244C61.0032 57.9025 61.0285 57.5611 61.0614 57.2215C61.0951 56.881 61.1373 56.5415 61.1871 56.2029C61.2377 55.8652 61.2959 55.5285 61.3625 55.1927C61.4291 54.8578 61.5041 54.5239 61.5876 54.1918C61.6701 53.8607 61.7611 53.5315 61.8605 53.2041C61.96 52.8768 62.0669 52.5522 62.1823 52.2305C62.2976 51.9078 62.4205 51.5889 62.5518 51.2728C62.6822 50.9576 62.821 50.6453 62.9674 50.3357C63.1137 50.0262 63.2675 49.7213 63.4279 49.4193C63.5893 49.1182 63.7581 48.8209 63.9335 48.5273C64.1098 48.2337 64.2928 47.9448 64.4822 47.6606C64.6726 47.3764 64.8696 47.0968 65.0732 46.822C65.2767 46.5481 65.4868 46.278 65.7035 46.0144C65.9211 45.7499 66.1444 45.491 66.3742 45.2377C66.603 44.9845 66.8394 44.7368 67.0805 44.4948C67.3225 44.2528 67.5701 44.0174 67.8234 43.7876C68.0766 43.5578 68.3355 43.3345 68.6 43.1179C68.8645 42.9012 69.1337 42.6901 69.4086 42.4866C69.6834 42.283 69.9629 42.0861 70.2471 41.8966C70.5313 41.7062 70.8203 41.5233 71.1138 41.3479C71.4065 41.1715 71.7038 41.0036 72.0059 40.8423C72.307 40.681 72.6128 40.5271 72.9223 40.3808C73.2309 40.2345 73.5432 40.0966 73.8594 39.9653C74.1755 39.8349 74.4944 39.712 74.8161 39.5966C75.1378 39.4813 75.4624 39.3743 75.7897 39.2749C76.1171 39.1755 76.4463 39.0845 76.7784 39.001C77.1104 38.9185 77.4434 38.8434 77.7792 38.7768C78.1141 38.7093 78.4508 38.6511 78.7894 38.6014C79.1281 38.5508 79.4667 38.5095 79.8072 38.4757C80.1477 38.442 80.4882 38.4166 80.8296 38.3998C81.172 38.3838 81.5134 38.3754 81.8548 38.3754C82.1972 38.3754 82.5386 38.3838 82.88 38.3998C83.2224 38.4166 83.5629 38.442 83.9034 38.4757C84.2439 38.5095 84.5825 38.5508 84.9211 38.6014C85.2588 38.6511 85.5965 38.7093 85.9313 38.7768C86.2671 38.8434 86.6001 38.9185 86.9322 39.001C87.2633 39.0845 87.5935 39.1755 87.9208 39.2749C88.2472 39.3743 88.5718 39.4813 88.8945 39.5966C89.2162 39.712 89.5351 39.8349 89.8512 39.9653C90.1673 40.0966 90.4797 40.2345 90.7883 40.3808C91.0978 40.5271 91.4026 40.681 91.7047 40.8423C92.0058 41.0036 92.3031 41.1715 92.5967 41.3479C92.8903 41.5233 93.1792 41.7062 93.4634 41.8966C93.7476 42.0861 94.0272 42.283 94.302 42.4866C94.5768 42.6901 94.846 42.9012 95.1105 43.1179C95.3741 43.3345 95.633 43.5578 95.8872 43.7876C96.1405 44.0174 96.3881 44.2528 96.6292 44.4948C96.8712 44.7368 97.1066 44.9845 97.3364 45.2377C97.5662 45.491 97.7894 45.7499 98.0061 46.0144C98.2237 46.278 98.4339 46.5481 98.6374 46.822C98.8409 47.0968 99.0379 47.3764 99.2283 47.6606C99.4178 47.9448 99.6007 48.2337 99.7761 48.5273C99.9525 48.8209 100.121 49.1182 100.282 49.4193C100.443 49.7213 100.597 50.0262 100.743 50.3357C100.89 50.6453 101.028 50.9576 101.159 51.2728C101.29 51.5889 101.413 51.9078 101.528 52.2305C101.643 52.5522 101.751 52.8768 101.849 53.2041C101.949 53.5315 102.04 53.8607 102.123 54.1918C102.206 54.5239 102.281 54.8578 102.348 55.1927C102.415 55.5285 102.473 55.8652 102.524 56.2029C102.573 56.5415 102.615 56.881 102.648 57.2215C102.682 57.5611 102.707 57.9025 102.724 58.244C102.741 58.5854 102.75 58.9268 102.75 59.2692Z" fill="#162883"/>
<path d="M74.6781 66.5095C74.4765 66.5095 74.2738 66.4776 74.0778 66.4101C73.5797 66.2403 73.1783 65.8679 72.9729 65.3858L69.6158 57.5535C69.2106 56.609 69.6477 55.5199 70.5922 55.1157C71.533 54.7105 72.6258 55.1476 73.0301 56.0921L75.5777 62.0353L93.2213 52.2623C94.1171 51.768 95.2483 52.0888 95.7455 52.9883C96.2435 53.885 95.919 55.0153 95.0195 55.5134L75.5777 66.2816C75.2981 66.4326 74.9895 66.5095 74.6781 66.5095Z" fill="white"/>
<path d="M141.505 95.4063C141.505 95.7759 141.487 96.1445 141.45 96.5131C141.415 96.8808 141.36 97.2457 141.288 97.6087C141.216 97.9717 141.126 98.3291 141.019 98.6837C140.911 99.0373 140.787 99.3843 140.645 99.7267C140.504 100.068 140.346 100.402 140.172 100.728C139.997 101.054 139.808 101.371 139.602 101.678C139.397 101.985 139.176 102.282 138.942 102.568C138.707 102.854 138.46 103.127 138.198 103.389C137.936 103.65 137.663 103.898 137.377 104.132C137.091 104.367 136.795 104.587 136.487 104.793C136.181 104.998 135.863 105.188 135.537 105.362C135.212 105.537 134.878 105.694 134.536 105.836C134.195 105.978 133.847 106.101 133.493 106.209C133.14 106.316 132.781 106.406 132.418 106.478C132.055 106.551 131.69 106.604 131.323 106.641C130.955 106.677 130.585 106.695 130.216 106.695C129.846 106.695 129.478 106.677 129.11 106.641C128.741 106.604 128.376 106.551 128.013 106.478C127.651 106.406 127.293 106.316 126.939 106.209C126.585 106.101 126.238 105.978 125.896 105.836C125.554 105.694 125.221 105.537 124.895 105.362C124.568 105.188 124.252 104.998 123.944 104.793C123.637 104.587 123.34 104.367 123.054 104.132C122.769 103.898 122.495 103.65 122.233 103.389C121.972 103.127 121.724 102.854 121.49 102.568C121.255 102.282 121.035 101.985 120.829 101.678C120.624 101.371 120.434 101.054 120.26 100.728C120.085 100.402 119.928 100.068 119.786 99.7267C119.645 99.3843 119.521 99.0373 119.413 98.6837C119.306 98.3291 119.216 97.9717 119.144 97.6087C119.072 97.2457 119.018 96.8808 118.981 96.5131C118.946 96.1445 118.927 95.7759 118.927 95.4063C118.927 95.0367 118.946 94.6681 118.981 94.2995C119.018 93.9318 119.072 93.5669 119.144 93.2039C119.216 92.8418 119.306 92.4835 119.413 92.129C119.521 91.7753 119.645 91.4283 119.786 91.0859C119.928 90.7445 120.085 90.4106 120.26 90.0851C120.434 89.7586 120.624 89.4425 120.829 89.1349C121.035 88.8272 121.255 88.5308 121.49 88.2447C121.724 87.9586 121.972 87.6857 122.233 87.424C122.495 87.1623 122.769 86.9147 123.054 86.6802C123.34 86.4457 123.637 86.2252 123.944 86.0198C124.252 85.8144 124.568 85.6249 124.895 85.4504C125.221 85.276 125.554 85.1184 125.896 84.9768C126.238 84.8351 126.585 84.7113 126.939 84.6034C127.293 84.4965 127.651 84.4065 128.013 84.3342C128.376 84.262 128.741 84.2085 129.11 84.172C129.478 84.1354 129.846 84.1176 130.216 84.1176C130.585 84.1176 130.955 84.1354 131.323 84.172C131.69 84.2085 132.055 84.262 132.418 84.3342C132.781 84.4065 133.14 84.4965 133.493 84.6034C133.847 84.7113 134.195 84.8351 134.536 84.9768C134.878 85.1184 135.212 85.276 135.537 85.4504C135.863 85.6249 136.181 85.8144 136.487 86.0198C136.795 86.2252 137.091 86.4457 137.377 86.6802C137.663 86.9147 137.936 87.1623 138.198 87.424C138.46 87.6857 138.707 87.9586 138.942 88.2447C139.176 88.5308 139.397 88.8272 139.602 89.1349C139.808 89.4425 139.997 89.7586 140.172 90.0851C140.346 90.4106 140.504 90.7445 140.645 91.0859C140.787 91.4283 140.911 91.7753 141.019 92.129C141.126 92.4835 141.216 92.8418 141.288 93.2039C141.36 93.5669 141.415 93.9318 141.45 94.2995C141.487 94.6681 141.505 95.0367 141.505 95.4063Z" fill="#162883"/>
<path d="M124.584 100.177L125.154 98.9884C125.394 98.4838 125.487 97.9248 125.42 97.3723L125.073 94.5874C124.793 92.3156 126.081 90.2145 128.092 89.3637C128.086 89.3318 128.076 89.3055 128.07 89.2765C127.977 88.5223 128.513 87.8376 129.265 87.741C130.02 87.6481 130.705 88.1818 130.8 88.936C130.804 88.9688 130.8 88.9941 130.804 89.026C132.957 89.3571 134.723 91.0821 135.006 93.3539L135.352 96.1351C135.42 96.6913 135.645 97.2119 136.001 97.6424L136.847 98.6573L124.584 100.177Z" fill="white"/>
<path d="M127.858 100.89C125.388 100.89 124.735 100.44 124.707 100.328C124.71 100.019 126.522 98.9753 130.588 98.4707C131.633 98.3422 132.671 98.2719 133.593 98.2719C136.062 98.2719 136.715 98.7211 136.743 98.8337C136.74 99.1423 134.928 100.186 130.862 100.691C129.821 100.819 128.783 100.89 127.858 100.89Z" fill="#162883"/>
<path d="M133.595 98.6255C135 98.6255 135.796 98.7793 136.185 98.9116C135.539 99.3224 133.715 99.9903 130.823 100.347C129.795 100.475 128.77 100.543 127.861 100.543C126.457 100.543 125.661 100.389 125.272 100.258C125.918 99.8458 127.742 99.178 130.633 98.8215C131.661 98.693 132.687 98.6255 133.595 98.6255ZM133.595 97.9248C132.683 97.9248 131.643 97.9895 130.547 98.1237C127.032 98.5608 124.263 99.5663 124.363 100.369C124.43 100.923 125.841 101.237 127.861 101.237C128.773 101.237 129.814 101.173 130.91 101.038C134.425 100.601 137.194 99.5954 137.094 98.7924C137.023 98.2362 135.613 97.9248 133.595 97.9248Z" fill="white"/>
<path d="M132.272 98.2719V98.2878C132.272 99.2127 131.521 99.9649 130.595 99.9649C129.801 99.9649 129.136 99.4153 128.963 98.6733C129.464 98.587 129.997 98.5063 130.543 98.4388C131.142 98.3647 131.722 98.3103 132.272 98.2719Z" fill="white"/>
<mask id="mask0_19363_4342" style="mask-type:luminance" maskUnits="userSpaceOnUse" x="45" y="14" width="2" height="6">
<path d="M45.273 14.9368H46.9539V19.4091H45.273V14.9368Z" fill="white"/>
</mask>
<g mask="url(#mask0_19363_4342)">
<path d="M46.1867 19.1709C45.8012 19.1709 45.4897 18.8594 45.4897 18.4739V15.6243C45.4897 15.2388 45.8012 14.9274 46.1867 14.9274C46.5722 14.9274 46.8836 15.2388 46.8836 15.6243V18.4739C46.8836 18.8594 46.5722 19.1709 46.1867 19.1709Z" fill="#162883"/>
</g>
<path d="M46.1866 26.0773C45.8011 26.0773 45.4897 25.7659 45.4897 25.3804V22.5308C45.4897 22.1453 45.8011 21.8339 46.1866 21.8339C46.5721 21.8339 46.8835 22.1453 46.8835 22.5308V25.3804C46.8835 25.7659 46.5721 26.0773 46.1866 26.0773Z" fill="#162883"/>
<path d="M51.0669 21.2007H48.2173C47.8318 21.2007 47.5204 20.8893 47.5204 20.5038C47.5204 20.1183 47.8318 19.8069 48.2173 19.8069H51.0669C51.4525 19.8069 51.7639 20.1183 51.7639 20.5038C51.7639 20.8893 51.4525 21.2007 51.0669 21.2007Z" fill="#162883"/>
<path d="M44.1596 21.2007H41.31C40.9245 21.2007 40.613 20.8893 40.613 20.5038C40.613 20.1183 40.9245 19.8069 41.31 19.8069H44.1596C44.5451 19.8069 44.8565 20.1183 44.8565 20.5038C44.8565 20.8893 44.5451 21.2007 44.1596 21.2007Z" fill="#162883"/>
<path d="M146.079 50.7044C145.806 50.7044 145.585 50.483 145.585 50.2101V48.1924C145.585 47.9195 145.806 47.6981 146.079 47.6981C146.352 47.6981 146.574 47.9195 146.574 48.1924V50.2101C146.574 50.483 146.352 50.7044 146.079 50.7044Z" fill="#162883"/>
<path d="M146.079 55.5941C145.806 55.5941 145.585 55.3728 145.585 55.0989V53.0822C145.585 52.8083 145.806 52.5869 146.079 52.5869C146.352 52.5869 146.574 52.8083 146.574 53.0822V55.0989C146.574 55.3728 146.352 55.5941 146.079 55.5941Z" fill="#162883"/>
<mask id="mask1_19363_4342" style="mask-type:luminance" maskUnits="userSpaceOnUse" x="146" y="51" width="4" height="2">
<path d="M146.846 51.1058H150V52.3065H146.846V51.1058Z" fill="white"/>
</mask>
<g mask="url(#mask1_19363_4342)">
<path d="M149.533 52.1405H147.515C147.242 52.1405 147.021 51.9191 147.021 51.6461C147.021 51.3732 147.242 51.1509 147.515 51.1509H149.533C149.806 51.1509 150.027 51.3732 150.027 51.6461C150.027 51.9191 149.806 52.1405 149.533 52.1405Z" fill="#162883"/>
</g>
<path d="M144.643 52.1405H142.625C142.353 52.1405 142.131 51.9191 142.131 51.6461C142.131 51.3732 142.353 51.1509 142.625 51.1509H144.643C144.916 51.1509 145.138 51.3732 145.138 51.6461C145.138 51.9191 144.916 52.1405 144.643 52.1405Z" fill="#162883"/>
<path d="M21.8043 79.8675C21.4892 79.8675 21.235 79.6133 21.235 79.2991V76.9794C21.235 76.6643 21.4892 76.411 21.8043 76.411C22.1186 76.411 22.3728 76.6643 22.3728 76.9794V79.2991C22.3728 79.6133 22.1186 79.8675 21.8043 79.8675Z" fill="#162883"/>
<path d="M21.8043 85.4926C21.4892 85.4926 21.235 85.2384 21.235 84.9242V82.6046C21.235 82.2894 21.4892 82.0361 21.8043 82.0361C22.1186 82.0361 22.3728 82.2894 22.3728 82.6046V84.9242C22.3728 85.2356 22.1186 85.4926 21.8043 85.4926Z" fill="#162883"/>
<path d="M25.7777 81.5184H23.4581C23.1438 81.5184 22.8896 81.2652 22.8896 80.95C22.8896 80.6358 23.1438 80.3816 23.4581 80.3816H25.7777C26.0929 80.3816 26.3462 80.6358 26.3462 80.95C26.3462 81.2652 26.0929 81.5184 25.7777 81.5184Z" fill="#162883"/>
<path d="M20.1526 81.5184H17.833C17.5187 81.5184 17.2645 81.2652 17.2645 80.95C17.2645 80.6358 17.5187 80.3816 17.833 80.3816H20.1526C20.4678 80.3816 20.721 80.6358 20.721 80.95C20.721 81.2652 20.4678 81.5184 20.1526 81.5184Z" fill="#162883"/>
<path d="M88.0362 116.169H24.5603C23.7986 116.169 23.1824 115.552 23.1824 114.791V105.128C23.1824 104.366 23.7986 103.749 24.5603 103.749H88.0362C88.7979 103.749 89.4141 104.366 89.4141 105.128V114.791C89.4113 115.552 88.7941 116.169 88.0362 116.169Z" fill="white"/>
<path d="M23.3559 114.791H23.006V105.128C23.006 104.273 23.7029 103.575 24.5574 103.575H88.0324V103.926H24.5602C23.899 103.926 23.3587 104.465 23.3587 105.128V114.791H23.3559Z" fill="#162883"/>
<path d="M27.3555 109.268H71.4534V110.65H27.3555V109.268Z" fill="black"/>
<path d="M83.3011 109.959C83.3011 110.208 83.2767 110.454 83.2279 110.697C83.1792 110.941 83.1079 111.178 83.0122 111.408C82.9175 111.636 82.8011 111.855 82.6633 112.061C82.5244 112.268 82.3678 112.459 82.1924 112.634C82.017 112.811 81.8256 112.967 81.6193 113.105C81.412 113.243 81.1944 113.36 80.9646 113.455C80.7347 113.55 80.4984 113.622 80.2545 113.671C80.0106 113.719 79.7649 113.743 79.5163 113.743C79.2677 113.743 79.022 113.719 78.7781 113.671C78.5342 113.622 78.2978 113.55 78.068 113.455C77.8382 113.36 77.6206 113.243 77.4142 113.105C77.2069 112.967 77.0165 112.811 76.8402 112.634C76.6648 112.459 76.5081 112.268 76.3703 112.061C76.2314 111.855 76.1151 111.636 76.0204 111.408C75.9247 111.178 75.8534 110.941 75.8046 110.697C75.7559 110.454 75.7324 110.208 75.7324 109.959C75.7324 109.711 75.7559 109.464 75.8046 109.221C75.8534 108.977 75.9247 108.74 76.0204 108.511C76.1151 108.281 76.2314 108.063 76.3703 107.856C76.5081 107.65 76.6648 107.459 76.8402 107.283C77.0165 107.108 77.2069 106.95 77.4142 106.812C77.6206 106.674 77.8382 106.558 78.068 106.462C78.2978 106.368 78.5342 106.295 78.7781 106.248C79.022 106.199 79.2677 106.174 79.5163 106.174C79.7649 106.174 80.0106 106.199 80.2545 106.248C80.4984 106.295 80.7347 106.368 80.9646 106.462C81.1944 106.558 81.412 106.674 81.6193 106.812C81.8256 106.95 82.017 107.108 82.1924 107.283C82.3678 107.459 82.5244 107.65 82.6633 107.856C82.8011 108.063 82.9175 108.281 83.0122 108.511C83.1079 108.74 83.1792 108.977 83.2279 109.221C83.2767 109.464 83.3011 109.711 83.3011 109.959Z" fill="#162883"/>
<path d="M78.2181 111.27C78.1834 111.27 78.1449 111.263 78.1093 111.25C78.0193 111.218 77.9452 111.15 77.9104 111.064L77.3026 109.644C77.2295 109.473 77.3092 109.275 77.4799 109.2C77.6497 109.127 77.8495 109.207 77.9226 109.378L78.386 110.454L81.5818 108.684C81.7459 108.594 81.9485 108.652 82.0386 108.815C82.1286 108.979 82.0704 109.182 81.9063 109.272L78.386 111.222C78.3307 111.256 78.2734 111.27 78.2181 111.27Z" fill="white"/>
</svg>
