<svg width="12" height="12" viewBox="0 0 12 12" fill="none" xmlns="http://www.w3.org/2000/svg">
<g clip-path="url(#clip0_30232_4118)">
<path d="M6 11.25C3.105 11.25 0.75 8.895 0.75 6C0.75 3.105 3.105 0.75 6 0.75C8.895 0.75 11.25 3.105 11.25 6C11.25 8.895 8.895 11.25 6 11.25ZM6 1.5C3.5175 1.5 1.5 3.5175 1.5 6C1.5 8.4825 3.5175 10.5 6 10.5C8.4825 10.5 10.5 8.4825 10.5 6C10.5 3.5175 8.4825 1.5 6 1.5Z" fill="#0D50E5"/>
<path d="M6 8.625C5.79 8.625 5.625 8.46 5.625 8.25V3.75C5.625 3.54 5.79 3.375 6 3.375C6.21 3.375 6.375 3.54 6.375 3.75V8.25C6.375 8.46 6.21 8.625 6 8.625Z" fill="#0D50E5"/>
<path d="M8.25 6.375H3.75C3.54 6.375 3.375 6.21 3.375 6C3.375 5.79 3.54 5.625 3.75 5.625H8.25C8.46 5.625 8.625 5.79 8.625 6C8.625 6.21 8.46 6.375 8.25 6.375Z" fill="#0D50E5"/>
</g>
<defs>
<clipPath id="clip0_30232_4118">
<rect width="12" height="12" fill="white"/>
</clipPath>
</defs>
</svg>
