<svg width="20" height="21" viewBox="0 0 20 21" fill="none" xmlns="http://www.w3.org/2000/svg">
<path fill-rule="evenodd" clip-rule="evenodd" d="M14.7143 5.1614C14.8799 5.1615 15.0387 5.22734 15.1559 5.34446C15.273 5.46157 15.3388 5.62038 15.3389 5.78601L15.3389 12.8571C15.3419 12.941 15.3279 13.0246 15.2979 13.1029C15.2678 13.1813 15.2223 13.2528 15.164 13.3132C15.1057 13.3736 15.0358 13.4216 14.9586 13.4544C14.8813 13.4872 14.7982 13.5041 14.7143 13.5041C14.6304 13.5041 14.5473 13.4872 14.47 13.4544C14.3928 13.4216 14.3229 13.3736 14.2646 13.3132C14.2063 13.2528 14.1608 13.1813 14.1308 13.1029C14.1007 13.0246 14.0867 12.941 14.0897 12.8571L14.0897 7.2945L5.72816 15.656C5.61095 15.7733 5.45197 15.8391 5.28621 15.8391C5.12045 15.8391 4.96148 15.7733 4.84427 15.656C4.72706 15.5388 4.66121 15.3799 4.66121 15.2141C4.66121 15.0483 4.72706 14.8894 4.84427 14.7722L13.2058 6.41062L7.64324 6.41062C7.55936 6.41358 7.47574 6.39962 7.39737 6.36956C7.31901 6.3395 7.2475 6.29397 7.18711 6.23568C7.12673 6.17739 7.0787 6.10753 7.0459 6.03027C7.01309 5.95301 6.99619 5.86994 6.99619 5.78601C6.99619 5.70208 7.01309 5.61901 7.0459 5.54175C7.0787 5.46449 7.12673 5.39463 7.18711 5.33634C7.2475 5.27805 7.31901 5.23251 7.39737 5.20246C7.47574 5.1724 7.55936 5.15844 7.64324 5.1614L14.7143 5.1614Z" fill="#000"/>
</svg>
