<svg width="175" height="177" viewBox="0 0 175 177" fill="none" xmlns="http://www.w3.org/2000/svg">
<path d="M0.5 97C0.5 53.0934 36.0934 17.5 80 17.5C123.907 17.5 159.5 53.0934 159.5 97C159.5 140.907 123.907 176.5 80 176.5C36.0934 176.5 0.5 140.907 0.5 97Z" stroke="#5A5B5B"/>
<path d="M15.5 80C15.5 36.0934 51.0934 0.5 95 0.5C138.907 0.5 174.5 36.0934 174.5 80C174.5 123.907 138.907 159.5 95 159.5C51.0934 159.5 15.5 123.907 15.5 80Z" fill="#FDFFFF" fill-opacity="0.05"/>
<path d="M15.5 80C15.5 36.0934 51.0934 0.5 95 0.5C138.907 0.5 174.5 36.0934 174.5 80C174.5 123.907 138.907 159.5 95 159.5C51.0934 159.5 15.5 123.907 15.5 80Z" stroke="#FDFFFF"/>
</svg>
