<svg width="48" height="48" viewBox="0 0 48 48" fill="none" xmlns="http://www.w3.org/2000/svg">
<path d="M0 24C0 10.7452 10.7452 0 24 0C37.2548 0 48 10.7452 48 24C48 37.2548 37.2548 48 24 48C10.7452 48 0 37.2548 0 24Z" fill="#E5EEFD"/>
<path fill-rule="evenodd" clip-rule="evenodd" d="M24.0023 10.875C20.3684 10.875 17.2131 13.6333 17.0545 17.3392C17.0295 17.9226 17.0132 18.4916 17.0053 19.0559C14.5379 19.8087 12.589 21.8903 12.3413 24.6249C12.1354 26.8972 12.1364 28.9644 12.3433 31.243C12.6577 34.7051 15.6948 37.125 19.0638 37.125H28.9356C32.2835 37.125 35.3122 34.7348 35.6438 31.2928C35.8676 28.9711 35.8687 26.8753 35.6474 24.5711C35.3867 21.8568 33.4446 19.8007 30.9946 19.0548C30.9863 18.4804 30.9688 17.9015 30.942 17.3079C30.775 13.6132 27.6222 10.875 24.0023 10.875ZM19.0569 18.75C18.9578 18.75 18.859 18.7521 18.7606 18.7563C18.7693 18.3143 18.7834 17.8687 18.8029 17.414C18.9183 14.719 21.2295 12.625 24.0023 12.625C26.766 12.625 29.0726 14.7046 29.1938 17.3869C29.2148 17.8506 29.2299 18.3052 29.2391 18.7561C29.1418 18.7521 29.0443 18.75 28.9464 18.75H19.0569ZM19.0569 20.5C16.4858 20.5 14.3063 22.331 14.0842 24.7828C13.8879 26.9494 13.8887 28.9107 14.0861 31.0847C14.3092 33.5404 16.4906 35.375 19.0638 35.375H28.9356C31.4942 35.375 33.6671 33.5622 33.9019 31.125C34.115 28.9139 34.1159 26.9303 33.9054 24.7384C33.6719 22.3074 31.5016 20.5 28.9464 20.5H19.0569Z" fill="#0D50E5"/>
<path fill-rule="evenodd" clip-rule="evenodd" d="M24 25.3125C22.5503 25.3125 21.375 26.4878 21.375 27.9375C21.375 29.3872 22.5503 30.5625 24 30.5625C25.4497 30.5625 26.625 29.3872 26.625 27.9375C26.625 26.4878 25.4497 25.3125 24 25.3125ZM23.125 27.9375C23.125 27.4542 23.5167 27.0625 24 27.0625C24.4833 27.0625 24.875 27.4542 24.875 27.9375C24.875 28.4208 24.4833 28.8125 24 28.8125C23.5167 28.8125 23.125 28.4208 23.125 27.9375Z" fill="#0D50E5"/>
</svg>
