<svg width="32" height="32" viewBox="0 0 32 32" fill="none" xmlns="http://www.w3.org/2000/svg">
  <path d="M0 16C0 7.16344 7.16344 0 16 0C24.8366 0 32 7.16344 32 16C32 24.8366 24.8366 32 16 32C7.16344 32 0 24.8366 0 16Z" fill="#E5EEFD"/>
  <g clip-path="url(#clip0_30324_2200)">
  <path fill-rule="evenodd" clip-rule="evenodd" d="M9.77453 8.32497C9.83353 7.33611 10.6729 6.625 11.6153 6.625H12.26C13.198 6.625 14.0369 7.33007 14.099 8.31633C14.1028 8.37816 14.1063 8.43933 14.1093 8.5H17.8901C17.8929 8.44217 17.896 8.38387 17.8995 8.32497C17.9585 7.33611 18.7979 6.625 19.7403 6.625H20.385C21.323 6.625 22.1619 7.33007 22.224 8.31633C22.2365 8.51505 22.2445 8.70699 22.248 8.8972C23.7969 9.55481 24.9608 10.976 25.1469 12.76C25.452 15.6843 25.4512 18.1551 25.1437 21.1079C24.8852 23.5911 22.7356 25.375 20.2852 25.375H11.7073C9.244 25.375 7.08905 23.5724 6.84217 21.0764C6.55345 18.1575 6.55239 15.7023 6.84031 12.794C7.01847 10.9944 8.18947 9.55663 9.75203 8.89513C9.75538 8.70854 9.76288 8.52007 9.77453 8.32497ZM22.1738 10.2539C21.9711 11.0684 21.2171 11.625 20.3835 11.625H19.7413C18.7981 11.625 17.959 10.913 17.8999 9.92416C17.8963 9.86553 17.8932 9.80753 17.8904 9.75H14.1087C14.1057 9.81013 14.1023 9.87078 14.0984 9.93216C14.0361 10.9183 13.1978 11.625 12.2585 11.625H11.6163C10.7809 11.625 10.0273 11.0665 9.82478 10.2519C8.87178 10.8051 8.19778 11.7702 8.08423 12.9172C7.80447 15.743 7.80543 18.1158 8.08609 20.9533C8.26535 22.7656 9.84131 24.125 11.7073 24.125H20.2852C22.1422 24.125 23.7129 22.7794 23.9004 20.9784C24.199 18.111 24.1997 15.7271 23.9036 12.8897C23.7853 11.7557 23.1169 10.8028 22.1738 10.2539ZM11.6153 7.875C11.2856 7.875 11.0391 8.11838 11.0223 8.39943C10.9924 8.89969 10.9926 9.34722 11.0226 9.84947C11.0395 10.1314 11.2866 10.375 11.6163 10.375H12.2585C12.5873 10.375 12.8332 10.133 12.8509 9.85337C12.8829 9.34641 12.883 8.8969 12.8514 8.39483C12.8339 8.11665 12.5889 7.875 12.26 7.875H11.6153ZM19.1473 8.39943C19.1641 8.11838 19.4106 7.875 19.7403 7.875H20.385C20.7139 7.875 20.9589 8.11665 20.9764 8.39483C21.008 8.8969 21.0079 9.34641 20.9759 9.85337C20.9582 10.133 20.7123 10.375 20.3835 10.375H19.7413C19.4116 10.375 19.1645 10.1314 19.1476 9.84947C19.1176 9.34722 19.1174 8.89969 19.1473 8.39943Z" fill="#0D50E5"/>
  <path d="M12.875 21.3125C12.5298 21.3125 12.25 21.5923 12.25 21.9375C12.25 22.2827 12.5298 22.5625 12.875 22.5625H19.125C19.4702 22.5625 19.75 22.2827 19.75 21.9375C19.75 21.5923 19.4702 21.3125 19.125 21.3125H12.875Z" fill="#0D50E5"/>
  </g>
  <defs>
  <clipPath id="clip0_30324_2200">
  <rect width="20" height="20" fill="white" transform="translate(6 6)"/>
  </clipPath>
  </defs>
  </svg>
  