<svg width="36" height="36" viewBox="0 0 36 36" fill="none" xmlns="http://www.w3.org/2000/svg">
<path d="M0 18C0 8.05888 8.05888 0 18 0C27.9411 0 36 8.05888 36 18C36 27.9411 27.9411 36 18 36C8.05888 36 0 27.9411 0 18Z" fill="#E8E8E8"/>
<path d="M13.7495 10C13.7495 9.80109 13.6705 9.61032 13.5299 9.46967C13.3892 9.32902 13.1984 9.25 12.9995 9.25C12.8006 9.25 12.6099 9.32902 12.4692 9.46967C12.3285 9.61032 12.2495 9.80109 12.2495 10V11.816C11.52 11.9195 10.8443 12.2588 10.3258 12.7823C9.80718 13.3057 9.47415 13.9845 9.37753 14.715L9.29053 15.368C9.27586 15.478 9.26186 15.5887 9.24853 15.7C9.24047 15.7693 9.24719 15.8395 9.26827 15.906C9.28934 15.9725 9.32428 16.0337 9.37079 16.0857C9.41729 16.1377 9.47429 16.1792 9.53803 16.2075C9.60176 16.2358 9.67078 16.2503 9.74053 16.25H26.2595C26.3293 16.2503 26.3983 16.2358 26.462 16.2075C26.5258 16.1792 26.5828 16.1377 26.6293 16.0857C26.6758 16.0337 26.7107 15.9725 26.7318 15.906C26.7529 15.8395 26.7596 15.7693 26.7515 15.7L26.7095 15.368L26.6225 14.715C26.5259 13.9845 26.1929 13.3057 25.6743 12.7823C25.1557 12.2588 24.4801 11.9195 23.7505 11.816V10C23.7505 9.80109 23.6715 9.61032 23.5309 9.46967C23.3902 9.32902 23.1994 9.25 23.0005 9.25C22.8016 9.25 22.6109 9.32902 22.4702 9.46967C22.3295 9.61032 22.2505 9.80109 22.2505 10V11.668C19.4228 11.4166 16.5783 11.4166 13.7505 11.668L13.7495 10ZM26.9445 18.226C26.9399 18.0978 26.8855 17.9764 26.7929 17.8876C26.7003 17.7987 26.5768 17.7494 26.4485 17.75H9.55053C9.42223 17.7494 9.29872 17.7987 9.20615 17.8876C9.11358 17.9764 9.0592 18.0978 9.05453 18.226C8.9954 20.0357 9.10588 21.8469 9.38453 23.636C9.48723 24.2951 9.80598 24.9015 10.2907 25.3598C10.7754 25.8181 11.3987 26.1024 12.0625 26.168L13.2555 26.286C16.4105 26.596 19.5885 26.596 22.7435 26.286L23.9365 26.168C24.6004 26.1024 25.2236 25.8181 25.7084 25.3598C26.1931 24.9015 26.5118 24.2951 26.6145 23.636C26.8932 21.8469 27.0037 20.0357 26.9445 18.226Z" fill="#141414"/>
</svg>
