<svg width="48" height="48" viewBox="0 0 48 48" fill="none" xmlns="http://www.w3.org/2000/svg">
<path d="M0 24C0 10.7452 10.7452 0 24 0C37.2548 0 48 10.7452 48 24C48 37.2548 37.2548 48 24 48C10.7452 48 0 37.2548 0 24Z" fill="#FBEAE4"/>
<path fill-rule="evenodd" clip-rule="evenodd" d="M23.9998 12.3335C20.7782 12.3335 18.1665 14.9452 18.1665 18.1668C18.1665 21.3885 20.7782 24.0002 23.9998 24.0002C27.2215 24.0002 29.8332 21.3885 29.8332 18.1668C29.8332 14.9452 27.2215 12.3335 23.9998 12.3335ZM20.4998 18.1668C20.4998 16.2338 22.0668 14.6668 23.9998 14.6668C25.9329 14.6668 27.4998 16.2338 27.4998 18.1668C27.4998 20.0998 25.9329 21.6668 23.9998 21.6668C22.0668 21.6668 20.4998 20.0998 20.4998 18.1668Z" fill="#E22900"/>
<path d="M16.9998 34.4998C16.9998 30.6339 20.1338 27.4998 23.9998 27.4998C24.6442 27.4998 25.1665 26.9775 25.1665 26.3332C25.1665 25.6888 24.6442 25.1665 23.9998 25.1665C18.8452 25.1665 14.6665 29.3452 14.6665 34.4998C14.6665 35.1442 15.1888 35.6665 15.8332 35.6665C16.4775 35.6665 16.9998 35.1442 16.9998 34.4998Z" fill="#E22900"/>
<path fill-rule="evenodd" clip-rule="evenodd" d="M32.9917 27.8417C33.4473 28.2973 33.4473 29.036 32.9917 29.4916L31.4834 31L32.9917 32.5084C33.4473 32.9639 33.4473 33.7027 32.9917 34.1583C32.5362 34.6138 31.7974 34.6138 31.3418 34.1583L29.8335 32.6499L28.3251 34.1583C27.8695 34.6138 27.1308 34.6138 26.6752 34.1583C26.2196 33.7027 26.2196 32.9639 26.6752 32.5084L28.1836 31L26.6752 29.4916C26.2196 29.036 26.2196 28.2973 26.6752 27.8417C27.1308 27.3861 27.8695 27.3861 28.3251 27.8417L29.8335 29.3501L31.3418 27.8417C31.7974 27.3861 32.5362 27.3861 32.9917 27.8417Z" fill="#E22900"/>
</svg>
