<svg width="200" height="200" viewBox="0 0 200 200" fill="none" xmlns="http://www.w3.org/2000/svg">
<path d="M0 100C0 44.7715 44.7715 0 100 0C155.228 0 200 44.7715 200 100C200 155.228 155.228 200 100 200C44.7715 200 0 155.228 0 100Z" fill="#F7F9F9"/>
<path fill-rule="evenodd" clip-rule="evenodd" d="M100 50C86.1929 50 75 61.1929 75 75C75 88.8071 86.1929 100 100 100C113.807 100 125 88.8071 125 75C125 61.1929 113.807 50 100 50ZM85 75C85 66.7157 91.7155 60 100 60C108.284 60 115 66.7157 115 75C115 83.2842 108.284 90 100 90C91.7155 90 85 83.2842 85 75Z" fill="#B5B9B9"/>
<path d="M70 145C70 128.431 83.4314 115 100 115C102.762 115 105 112.761 105 110C105 107.239 102.762 105 100 105C77.9086 105 60 122.908 60 145C60 147.762 62.2386 150 65 150C67.7614 150 70 147.762 70 145Z" fill="#B5B9B9"/>
<path fill-rule="evenodd" clip-rule="evenodd" d="M138.535 116.464C140.488 118.417 140.488 121.583 138.535 123.535L132.071 130L138.535 136.464C140.488 138.417 140.488 141.583 138.535 143.535C136.583 145.488 133.417 145.488 131.464 143.535L125 137.071L118.535 143.535C116.583 145.488 113.417 145.488 111.464 143.535C109.512 141.583 109.512 138.417 111.464 136.464L117.929 130L111.464 123.535C109.512 121.583 109.512 118.417 111.464 116.464C113.417 114.512 116.583 114.512 118.535 116.464L125 122.929L131.464 116.464C133.417 114.512 136.583 114.512 138.535 116.464Z" fill="#E22900"/>
</svg>
