<svg width="32" height="32" viewBox="0 0 32 32" fill="none" xmlns="http://www.w3.org/2000/svg">
  <path d="M0 16C0 7.16344 7.16344 0 16 0C24.8366 0 32 7.16344 32 16C32 24.8366 24.8366 32 16 32C7.16344 32 0 24.8366 0 16Z" fill="#F7F9F9"/>
  <path d="M10.1667 17.6668C11.0871 17.6668 11.8333 16.9206 11.8333 16.0002C11.8333 15.0797 11.0871 14.3335 10.1667 14.3335C9.24619 14.3335 8.5 15.0797 8.5 16.0002C8.5 16.9206 9.24619 17.6668 10.1667 17.6668Z" stroke="#0D50E5"/>
  <path d="M15.9997 17.6668C16.9201 17.6668 17.6663 16.9206 17.6663 16.0002C17.6663 15.0797 16.9201 14.3335 15.9997 14.3335C15.0792 14.3335 14.333 15.0797 14.333 16.0002C14.333 16.9206 15.0792 17.6668 15.9997 17.6668Z" stroke="#0D50E5"/>
  <path d="M21.8337 17.6668C22.7541 17.6668 23.5003 16.9206 23.5003 16.0002C23.5003 15.0797 22.7541 14.3335 21.8337 14.3335C20.9132 14.3335 20.167 15.0797 20.167 16.0002C20.167 16.9206 20.9132 17.6668 21.8337 17.6668Z" stroke="#0D50E5"/>
  </svg>
  