<svg width="36" height="36" viewBox="0 0 36 36" fill="none" xmlns="http://www.w3.org/2000/svg">
<path d="M0 18C0 8.05888 8.05888 0 18 0C27.9411 0 36 8.05888 36 18C36 27.9411 27.9411 36 18 36C8.05888 36 0 27.9411 0 18Z" fill="#E8E8E8"/>
<path d="M10 27.0003H26M11.666 19.1873C11.2396 19.6147 11.0001 20.1937 11 20.7973V24.0003H14.223C14.827 24.0003 15.406 23.7603 15.833 23.3323L25.333 13.8273C25.7592 13.3999 25.9986 12.821 25.9986 12.2173C25.9986 11.6137 25.7592 11.0347 25.333 10.6073L24.395 9.66734C24.1835 9.45569 23.9323 9.28781 23.6558 9.1733C23.3794 9.0588 23.083 8.99991 22.7838 9C22.4846 9.00009 22.1883 9.05917 21.9119 9.17385C21.6355 9.28852 21.3844 9.45656 21.173 9.66834L11.666 19.1873Z" stroke="#141414" stroke-width="1.5" stroke-linecap="round" stroke-linejoin="round"/>
</svg>
