<svg width="12" height="12" viewBox="0 0 12 12" fill="none" xmlns="http://www.w3.org/2000/svg">
  <path fill-rule="evenodd" clip-rule="evenodd" d="M9.1032 5.14727L8.65872 4.7028L3.99842 9.36309C3.94865 9.41287 3.88747 9.44859 3.82102 9.46773L2.53267 8.17938C2.55181 8.11294 2.58754 8.05175 2.63731 8.00198L7.29761 3.34168L6.85315 2.89722L2.19284 7.55752C2.00897 7.74139 1.901 7.98698 1.8891 8.2456L1.29823 10.3136C1.26688 10.4234 1.29748 10.5415 1.37819 10.6222C1.4589 10.7029 1.57702 10.7335 1.68677 10.7022L3.7548 10.1113C4.01342 10.0994 4.25902 9.99144 4.4429 9.80757L9.1032 5.14727ZM2.05803 9.94238L2.35774 8.89339L3.10701 9.64266L2.05803 9.94238Z" fill="#fff"/>
  <path fill-rule="evenodd" clip-rule="evenodd" d="M10.2485 1.75164C9.62711 1.13031 8.61974 1.13031 7.99841 1.75165L7.29736 2.45269L9.54741 4.70274L10.2485 4.0017C10.8698 3.38036 10.8698 2.37298 10.2485 1.75164ZM9.57482 3.78638L8.21371 2.42527L8.44287 2.19611C8.81874 1.82025 9.42812 1.82025 9.80399 2.19611C10.1798 2.57197 10.1798 3.18137 9.80399 3.55722L9.57482 3.78638Z" fill="#fff"/>
  </svg>
  