<svg width="16" height="16" viewBox="0 0 16 16" fill="none" xmlns="http://www.w3.org/2000/svg">
<path d="M8.00003 10.6667H8.00536M8.00003 5.33333V8.66667M2.15336 5.27533L5.27336 2.15333C5.37336 2.05333 5.5067 2 5.65336 2H10.3534C10.4934 2 10.6334 2.05333 10.7334 2.15333L13.8467 5.26867C13.9467 5.36867 14 5.502 14 5.64867V10.3513C14 10.4913 13.9467 10.6313 13.8467 10.7313L10.7334 13.8467C10.6334 13.9467 10.5 14 10.3534 14H5.6467C5.57638 14.0008 5.5066 13.9876 5.44138 13.9613C5.37617 13.935 5.3168 13.896 5.2667 13.8467L2.15336 10.7313C2.10401 10.6812 2.06506 10.6219 2.03875 10.5566C2.01243 10.4914 1.99927 10.4217 2.00003 10.3513V5.64867C2.00003 5.50867 2.05336 5.36867 2.15336 5.26867V5.27533Z" stroke="#F01E29" stroke-width="1.3" stroke-miterlimit="10" stroke-linecap="round" stroke-linejoin="round"/>
</svg>
