<svg width="40" height="40" viewBox="0 0 40 40" fill="none" xmlns="http://www.w3.org/2000/svg">
<path d="M0 20C0 8.95431 8.95431 0 20 0C31.0457 0 40 8.95431 40 20C40 31.0457 31.0457 40 20 40C8.95431 40 0 31.0457 0 20Z" fill="#E5EEFD"/>
<path d="M23 29C23.4569 28.9969 23.8987 28.8363 24.251 28.5454C24.6033 28.2545 24.8445 27.851 24.934 27.403L25.414 25H28.25C28.7141 25 29.1592 24.8156 29.4874 24.4874C29.8156 24.1592 30 23.7141 30 23.25V17.261C30.0003 16.6632 29.7637 16.0896 29.342 15.6658C28.9203 15.2421 28.3478 15.0026 27.75 15V14.996H22.5V13.25C22.5 12.6533 22.2629 12.081 21.841 11.659C21.419 11.2371 20.8467 11 20.25 11H12.25C11.6533 11 11.081 11.2371 10.659 11.659C10.2371 12.081 10 12.6533 10 13.25V25.75C10 26.612 10.3424 27.4386 10.9519 28.0481C11.5614 28.6576 12.388 29 13.25 29H23ZM25.522 16.818L23.463 27.109C23.4398 27.2277 23.3732 27.3335 23.2762 27.4058C23.1792 27.478 23.0587 27.5114 22.9383 27.4996C22.8179 27.4877 22.7063 27.4314 22.6252 27.3416C22.5442 27.2518 22.4995 27.135 22.5 27.014V16.496H25.61C25.5717 16.6007 25.5423 16.7084 25.522 16.818ZM13.778 16.5C13.5791 16.5 13.3883 16.421 13.2477 16.2803C13.107 16.1397 13.028 15.9489 13.028 15.75C13.028 15.5511 13.107 15.3603 13.2477 15.2197C13.3883 15.079 13.5791 15 13.778 15C13.9769 15 14.1677 15.079 14.3083 15.2197C14.449 15.3603 14.528 15.5511 14.528 15.75C14.528 15.9489 14.449 16.1397 14.3083 16.2803C14.1677 16.421 13.9769 16.5 13.778 16.5ZM13.031 23.75C13.031 23.5511 13.11 23.3603 13.2507 23.2197C13.3913 23.079 13.5821 23 13.781 23H18.781C18.9799 23 19.1707 23.079 19.3113 23.2197C19.452 23.3603 19.531 23.5511 19.531 23.75C19.531 23.9489 19.452 24.1397 19.3113 24.2803C19.1707 24.421 18.9799 24.5 18.781 24.5H13.781C13.5821 24.5 13.3913 24.421 13.2507 24.2803C13.11 24.1397 13.031 23.9489 13.031 23.75ZM13.781 19H18.781C18.8795 19 18.977 19.0194 19.068 19.0571C19.159 19.0948 19.2417 19.15 19.3113 19.2197C19.381 19.2893 19.4362 19.372 19.4739 19.463C19.5116 19.554 19.531 19.6515 19.531 19.75C19.531 19.8485 19.5116 19.946 19.4739 20.037C19.4362 20.128 19.381 20.2107 19.3113 20.2803C19.2417 20.35 19.159 20.4052 19.068 20.4429C18.977 20.4806 18.8795 20.5 18.781 20.5H13.781C13.5821 20.5 13.3913 20.421 13.2507 20.2803C13.11 20.1397 13.031 19.9489 13.031 19.75C13.031 19.5511 13.11 19.3603 13.2507 19.2197C13.3913 19.079 13.5821 19 13.781 19Z" fill="#0D50E5"/>
</svg>
