<svg width="24" height="24" viewBox="0 0 24 24" fill="none" xmlns="http://www.w3.org/2000/svg">
  <path d="M6 12C5.80109 12 5.61032 11.921 5.46967 11.7803C5.32902 11.6397 5.25 11.4489 5.25 11.25V3.75C5.25 3.55109 5.32902 3.36032 5.46967 3.21967C5.61032 3.07902 5.80109 3 6 3C6.19891 3 6.38968 3.07902 6.53033 3.21967C6.67098 3.36032 6.75 3.55109 6.75 3.75V11.25C6.75 11.4489 6.67098 11.6397 6.53033 11.7803C6.38968 11.921 6.19891 12 6 12ZM18 12C17.8011 12 17.6103 11.921 17.4697 11.7803C17.329 11.6397 17.25 11.4489 17.25 11.25V3.75C17.25 3.55109 17.329 3.36032 17.4697 3.21967C17.6103 3.07902 17.8011 3 18 3C18.1989 3 18.3897 3.07902 18.5303 3.21967C18.671 3.36032 18.75 3.55109 18.75 3.75V11.25C18.75 11.4489 18.671 11.6397 18.5303 11.7803C18.3897 11.921 18.1989 12 18 12ZM6.75 20.25V18.75C6.75 18.5511 6.67098 18.3603 6.53033 18.2197C6.38968 18.079 6.19891 18 6 18C5.80109 18 5.61032 18.079 5.46967 18.2197C5.32902 18.3603 5.25 18.5511 5.25 18.75V20.25C5.25 20.4489 5.32902 20.6397 5.46967 20.7803C5.61032 20.921 5.80109 21 6 21C6.19891 21 6.38968 20.921 6.53033 20.7803C6.67098 20.6397 6.75 20.4489 6.75 20.25ZM18.75 18.75V20.25C18.75 20.4489 18.671 20.6397 18.5303 20.7803C18.3897 20.921 18.1989 21 18 21C17.8011 21 17.6103 20.921 17.4697 20.7803C17.329 20.6397 17.25 20.4489 17.25 20.25V18.75C17.25 18.5511 17.329 18.3603 17.4697 18.2197C17.6103 18.079 17.8011 18 18 18C18.1989 18 18.3897 18.079 18.5303 18.2197C18.671 18.3603 18.75 18.5511 18.75 18.75ZM12.75 5.25V3.75C12.75 3.55109 12.671 3.36032 12.5303 3.21967C12.3897 3.07902 12.1989 3 12 3C11.8011 3 11.6103 3.07902 11.4697 3.21967C11.329 3.36032 11.25 3.55109 11.25 3.75V5.25C11.25 5.44891 11.329 5.63968 11.4697 5.78033C11.6103 5.92098 11.8011 6 12 6C12.1989 6 12.3897 5.92098 12.5303 5.78033C12.671 5.63968 12.75 5.44891 12.75 5.25ZM12 21C11.8011 21 11.6103 20.921 11.4697 20.7803C11.329 20.6397 11.25 20.4489 11.25 20.25V12.75C11.25 12.5511 11.329 12.3603 11.4697 12.2197C11.6103 12.079 11.8011 12 12 12C12.1989 12 12.3897 12.079 12.5303 12.2197C12.671 12.3603 12.75 12.5511 12.75 12.75V20.25C12.75 20.4489 12.671 20.6397 12.5303 20.7803C12.3897 20.921 12.1989 21 12 21ZM3.75 15C3.75 15.5967 3.98705 16.169 4.40901 16.591C4.83097 17.0129 5.40326 17.25 6 17.25C6.59674 17.25 7.16903 17.0129 7.59099 16.591C8.01295 16.169 8.25 15.5967 8.25 15C8.25 14.4033 8.01295 13.831 7.59099 13.409C7.16903 12.9871 6.59674 12.75 6 12.75C5.40326 12.75 4.83097 12.9871 4.40901 13.409C3.98705 13.831 3.75 14.4033 3.75 15ZM12 11.25C11.4033 11.25 10.831 11.0129 10.409 10.591C9.98705 10.169 9.75 9.59674 9.75 9C9.75 8.40326 9.98705 7.83097 10.409 7.40901C10.831 6.98705 11.4033 6.75 12 6.75C12.5967 6.75 13.169 6.98705 13.591 7.40901C14.0129 7.83097 14.25 8.40326 14.25 9C14.25 9.59674 14.0129 10.169 13.591 10.591C13.169 11.0129 12.5967 11.25 12 11.25ZM15.75 15C15.75 15.5967 15.9871 16.169 16.409 16.591C16.831 17.0129 17.4033 17.25 18 17.25C18.5967 17.25 19.169 17.0129 19.591 16.591C20.0129 16.169 20.25 15.5967 20.25 15C20.25 14.4033 20.0129 13.831 19.591 13.409C19.169 12.9871 18.5967 12.75 18 12.75C17.4033 12.75 16.831 12.9871 16.409 13.409C15.9871 13.831 15.75 14.4033 15.75 15Z" fill="#0D50E5"/>
  </svg>
  