<svg width="48" height="48" viewBox="0 0 48 48" fill="none" xmlns="http://www.w3.org/2000/svg">
<path d="M0 24C0 10.7452 10.7452 0 24 0C37.2548 0 48 10.7452 48 24C48 37.2548 37.2548 48 24 48C10.7452 48 0 37.2548 0 24Z" fill="#E5EEFD"/>
<path d="M24 34.5C26.3275 34.4999 28.589 33.7267 30.4295 32.302C32.27 30.8773 33.5852 28.8817 34.1687 26.6285M24 34.5C21.6725 34.4999 19.411 33.7267 17.5705 32.302C15.73 30.8773 14.4148 28.8817 13.8313 26.6285M24 34.5C26.8992 34.5 29.25 29.7983 29.25 24C29.25 18.2017 26.8992 13.5 24 13.5M24 34.5C21.1008 34.5 18.75 29.7983 18.75 24C18.75 18.2017 21.1008 13.5 24 13.5M34.1687 26.6285C34.3845 25.7885 34.5 24.9077 34.5 24C34.5029 22.1941 34.0378 20.4183 33.1502 18.8457M34.1687 26.6285C31.0574 28.3533 27.5574 29.2556 24 29.25C20.311 29.25 16.8448 28.2992 13.8313 26.6285M13.8313 26.6285C13.6105 25.7698 13.4992 24.8866 13.5 24C13.5 22.1275 13.99 20.3682 14.8498 18.8457M24 13.5C25.8623 13.4992 27.6912 13.9939 29.2992 14.9333C30.9072 15.8727 32.2363 17.223 33.1502 18.8457M24 13.5C22.1377 13.4992 20.3088 13.9939 18.7008 14.9333C17.0928 15.8727 15.7637 17.223 14.8498 18.8457M33.1502 18.8457C30.61 21.0459 27.3606 22.2548 24 22.25C20.5023 22.25 17.3033 20.9667 14.8498 18.8457" stroke="#0D50E5" stroke-width="1.3" stroke-linecap="round" stroke-linejoin="round"/>
</svg>
