<svg width="20" height="20" viewBox="0 0 20 20" fill="none" xmlns="http://www.w3.org/2000/svg">
<path fill-rule="evenodd" clip-rule="evenodd" d="M5.24399 5.24399C5.40026 5.08776 5.61219 5 5.83316 5C6.05413 5 6.26605 5.08776 6.42232 5.24399L10.589 9.41066C10.7452 9.56693 10.833 9.77885 10.833 9.99982C10.833 10.2208 10.7452 10.4327 10.589 10.589L6.42232 14.7557C6.26515 14.9075 6.05465 14.9915 5.83615 14.9896C5.61766 14.9877 5.40865 14.9 5.25414 14.7455C5.09963 14.591 5.01199 14.382 5.01009 14.1635C5.00819 13.945 5.09219 13.7345 5.24399 13.5773L8.82149 9.99982L5.24399 6.42232C5.08776 6.26605 5 6.05413 5 5.83316C5 5.61219 5.08776 5.40026 5.24399 5.24399ZM10.244 5.24399C10.4003 5.08776 10.6122 5 10.8332 5C11.0541 5 11.266 5.08776 11.4223 5.24399L15.589 9.41066C15.7452 9.56693 15.833 9.77885 15.833 9.99982C15.833 10.2208 15.7452 10.4327 15.589 10.589L11.4223 14.7557C11.2652 14.9075 11.0547 14.9915 10.8362 14.9896C10.6177 14.9877 10.4086 14.9 10.2541 14.7455C10.0996 14.591 10.012 14.382 10.0101 14.1635C10.0082 13.945 10.0922 13.7345 10.244 13.5773L13.8215 9.99982L10.244 6.42232C10.0878 6.26605 10 6.05413 10 5.83316C10 5.61219 10.0878 5.40026 10.244 5.24399Z" fill="#FDFFFF"/>
</svg>
