<svg width="200" height="200" viewBox="0 0 200 200" fill="none" xmlns="http://www.w3.org/2000/svg">
<path d="M0 100C0 44.7715 44.7715 0 100 0C155.228 0 200 44.7715 200 100C200 155.228 155.228 200 100 200C44.7715 200 0 155.228 0 100Z" fill="#F7F9F9"/>
<path d="M125.836 58.1574C123.018 56.6268 119.492 57.6701 117.962 60.4881C116.431 63.3058 117.475 66.8311 120.292 68.3621C134.04 75.8303 142.581 90.1781 142.581 105.807C142.581 129.286 123.479 148.387 100 148.387C76.5212 148.387 57.4195 129.286 57.4195 105.807C57.4195 90.2462 65.9051 75.9282 79.5646 68.4399C82.3768 66.8984 83.4065 63.3689 81.8651 60.557C80.3233 57.7451 76.7937 56.7151 73.9823 58.2565C56.6032 67.7841 45.8066 86.0044 45.8066 105.807C45.8066 135.689 70.1179 160 100 160C129.883 160 154.194 135.689 154.194 105.807C154.194 85.9177 143.328 67.6595 125.836 58.1574Z" fill="#B5B9B9"/>
<path d="M100 90.3226C103.207 90.3226 105.807 87.7228 105.807 84.5161V45.8065C105.807 42.5997 103.207 40 100 40C96.7936 40 94.1938 42.5997 94.1938 45.8065V84.5161C94.1938 87.7228 96.7936 90.3226 100 90.3226Z" fill="#E22900"/>
</svg>
