<svg width="48" height="48" viewBox="0 0 48 48" fill="none" xmlns="http://www.w3.org/2000/svg">
<path d="M0 24C0 10.7452 10.7452 0 24 0C37.2548 0 48 10.7452 48 24C48 37.2548 37.2548 48 24 48C10.7452 48 0 37.2548 0 24Z" fill="#FBEAE4"/>
<path d="M30.0285 14.2368C29.3709 13.8797 28.5483 14.1231 28.1912 14.7807C27.834 15.4381 28.0775 16.2607 28.7349 16.6179C31.9428 18.3605 33.9356 21.7083 33.9356 25.355C33.9356 30.8334 29.4786 35.2905 24.0001 35.2905C18.5217 35.2905 14.0647 30.8334 14.0647 25.355C14.0647 21.7242 16.0446 18.3834 19.2318 16.6361C19.888 16.2764 20.1283 15.4528 19.7686 14.7967C19.4089 14.1406 18.5853 13.9003 17.9293 14.2599C13.8742 16.4831 11.355 20.7345 11.355 25.355C11.355 32.3275 17.0276 38.0002 24.0001 38.0002C30.9727 38.0002 36.6453 32.3275 36.6453 25.355C36.6453 20.7142 34.1099 16.454 30.0285 14.2368Z" fill="#E22900"/>
<path d="M24.0003 21.7419C24.7486 21.7419 25.3552 21.1353 25.3552 20.3871V11.3548C25.3552 10.6066 24.7486 10 24.0003 10C23.2521 10 22.6455 10.6066 22.6455 11.3548V20.3871C22.6455 21.1353 23.2521 21.7419 24.0003 21.7419Z" fill="#E22900"/>
</svg>
