<svg width="16" height="16" viewBox="0 0 16 16" fill="none" xmlns="http://www.w3.org/2000/svg">
<path d="M4.99906 3.73301L3.3324 4.66634L4.26573 2.99967L3.3324 1.33301L4.99906 2.26634L6.66573 1.33301L5.7324 2.99967L6.66573 4.66634L4.99906 3.73301ZM12.9991 10.2663L14.6657 9.33301L13.7324 10.9997L14.6657 12.6663L12.9991 11.733L11.3324 12.6663L12.2657 10.9997L11.3324 9.33301L12.9991 10.2663ZM14.6657 1.33301L13.7324 2.99967L14.6657 4.66634L12.9991 3.73301L11.3324 4.66634L12.2657 2.99967L11.3324 1.33301L12.9991 2.26634L14.6657 1.33301ZM8.8924 8.51967L10.5191 6.89301L9.10573 5.47967L7.47906 7.10634L8.8924 8.51967ZM9.57906 4.85967L11.1391 6.41967C11.3991 6.66634 11.3991 7.09967 11.1391 7.35967L3.35906 15.1397C3.09906 15.3997 2.66573 15.3997 2.41906 15.1397L0.859062 13.5797C0.599063 13.333 0.599063 12.8997 0.859062 12.6397L8.63906 4.85967C8.89906 4.59967 9.33239 4.59967 9.57906 4.85967Z" fill="#141414"/>
</svg>
