<svg width="40" height="40" viewBox="0 0 40 40" fill="none" xmlns="http://www.w3.org/2000/svg">
<path d="M0 20C0 12.5231 0 8.78461 1.60769 6C2.66091 4.17577 4.17577 2.66091 6 1.60769C8.78461 0 12.5231 0 20 0C27.4769 0 31.2154 0 34 1.60769C35.8242 2.66091 37.3391 4.17577 38.3923 6C40 8.78461 40 12.5231 40 20C40 27.4769 40 31.2154 38.3923 34C37.3391 35.8242 35.8242 37.3391 34 38.3923C31.2154 40 27.4769 40 20 40C12.5231 40 8.78461 40 6 38.3923C4.17577 37.3391 2.66091 35.8242 1.60769 34C0 31.2154 0 27.4769 0 20Z" fill="#141414"/>
<path d="M14.8755 12.9164C14.9798 12.7921 15.0316 12.6321 15.0201 12.4702C15.0085 12.3083 14.9345 12.1573 14.8136 12.049C14.6926 11.9408 14.5344 11.8838 14.3722 11.8902C14.21 11.8965 14.0567 11.9657 13.9446 12.0831C12.9209 13.225 12.2423 14.6341 11.988 16.1464C11.9644 16.3082 12.0052 16.4727 12.1015 16.6047C12.1978 16.7367 12.3419 16.8258 12.5031 16.8528C12.6643 16.8798 12.8296 16.8427 12.9637 16.7493C13.0978 16.6559 13.19 16.5137 13.2205 16.3531C13.4356 15.074 14.0095 13.8822 14.8755 12.9164ZM26.0563 12.0831C26.0017 12.0214 25.9355 11.9711 25.8614 11.935C25.7873 11.899 25.7069 11.878 25.6246 11.8731C25.5424 11.8683 25.46 11.8798 25.3822 11.9069C25.3044 11.9341 25.2328 11.9763 25.1714 12.0312C25.11 12.0862 25.06 12.1527 25.0244 12.227C24.9888 12.3013 24.9683 12.3819 24.9639 12.4641C24.9596 12.5464 24.9715 12.6287 24.9991 12.7063C25.0267 12.784 25.0693 12.8554 25.1246 12.9164C25.9909 13.8821 26.5651 15.0739 26.7805 16.3531C26.8079 16.5167 26.8991 16.6626 27.0341 16.7589C27.101 16.8066 27.1766 16.8406 27.2566 16.859C27.3366 16.8775 27.4195 16.88 27.5005 16.8664C27.5814 16.8529 27.659 16.8235 27.7286 16.78C27.7982 16.7364 27.8586 16.6796 27.9062 16.6128C27.9539 16.5459 27.9879 16.4703 28.0064 16.3903C28.0249 16.3103 28.0274 16.2274 28.0138 16.1464C27.7589 14.6339 27.0806 13.2248 26.0563 12.0831Z" fill="#FDFFFF"/>
<path fill-rule="evenodd" clip-rule="evenodd" d="M19.9998 11.875C18.508 11.875 17.0773 12.4676 16.0224 13.5225C14.9675 14.5774 14.3748 16.0082 14.3748 17.5V18.125C14.3774 19.8243 13.748 21.4639 12.609 22.725C12.5406 22.8009 12.4919 22.8924 12.467 22.9915C12.4422 23.0906 12.442 23.1942 12.4665 23.2934C12.491 23.3926 12.5394 23.4842 12.6076 23.5603C12.6757 23.6365 12.7615 23.6947 12.8573 23.73C14.144 24.205 15.4907 24.555 16.8832 24.7658C16.8518 25.1943 16.9092 25.6246 17.0516 26.0299C17.194 26.4352 17.4185 26.8068 17.7109 27.1214C18.0034 27.4361 18.3576 27.6871 18.7514 27.8587C19.1453 28.0303 19.5703 28.1189 19.9998 28.1189C20.4294 28.1189 20.8544 28.0303 21.2483 27.8587C21.6421 27.6871 21.9963 27.4361 22.2888 27.1214C22.5812 26.8068 22.8057 26.4352 22.9481 26.0299C23.0905 25.6246 23.1479 25.1943 23.1165 24.7658C24.4899 24.5576 25.8385 24.2103 27.1415 23.7292C27.2372 23.6938 27.3229 23.6356 27.3909 23.5595C27.4589 23.4835 27.5073 23.3919 27.5318 23.2929C27.5563 23.1938 27.5561 23.0903 27.5314 22.9913C27.5067 22.8923 27.4581 22.8009 27.3898 22.725C26.2511 21.4638 25.6221 19.8242 25.6248 18.125V17.5C25.6248 16.0082 25.0322 14.5774 23.9773 13.5225C22.9224 12.4676 21.4917 11.875 19.9998 11.875ZM18.1248 25C18.1248 24.9717 18.1248 24.9442 18.1265 24.9167C19.3729 25.029 20.6268 25.029 21.8732 24.9167L21.8748 25C21.8748 25.4973 21.6773 25.9742 21.3257 26.3258C20.974 26.6775 20.4971 26.875 19.9998 26.875C19.5026 26.875 19.0257 26.6775 18.674 26.3258C18.3224 25.9742 18.1248 25.4973 18.1248 25Z" fill="#FDFFFF"/>
</svg>
