<svg width="40" height="40" viewBox="0 0 40 40" fill="none" xmlns="http://www.w3.org/2000/svg">
<path d="M0 20C0 8.95431 8.95431 0 20 0C31.0457 0 40 8.95431 40 20C40 31.0457 31.0457 40 20 40C8.95431 40 0 31.0457 0 20Z" fill="#F7F9F9"/>
<path d="M20 10.625C20.5821 10.625 21.1488 10.6913 21.6928 10.8168C21.3759 11.1411 21.1173 11.5226 20.9341 11.9443C20.6293 11.8987 20.3174 11.875 20 11.875C16.5482 11.875 13.75 14.6732 13.75 18.125V24.375C13.75 24.4422 13.7392 24.5089 13.7179 24.5727L13.3672 25.625H26.6329L26.2821 24.5727C26.2608 24.5089 26.25 24.4422 26.25 24.375V18.125C26.25 17.6587 26.1989 17.2042 26.1021 16.767C26.5089 16.5556 26.872 16.2717 27.1745 15.9326C27.3861 16.6261 27.5 17.3622 27.5 18.125V24.2736L27.9505 25.625H28.125C28.4702 25.625 28.75 25.9048 28.75 26.25C28.75 26.5952 28.4702 26.875 28.125 26.875H11.875C11.5298 26.875 11.25 26.5952 11.25 26.25C11.25 25.9048 11.5298 25.625 11.875 25.625H12.0495L12.5 24.2736V18.125C12.5 13.9829 15.8579 10.625 20 10.625Z" fill="#868989"/>
<path d="M20.9375 27.1875C20.9375 27.7053 20.5178 28.125 20 28.125C19.4822 28.125 19.0625 27.7053 19.0625 27.1875H17.8125C17.8125 28.3956 18.7919 29.375 20 29.375C21.2081 29.375 22.1875 28.3956 22.1875 27.1875H20.9375Z" fill="#868989"/>
<path fill-rule="evenodd" clip-rule="evenodd" d="M27.1875 13.4375C27.1875 11.8842 25.9283 10.625 24.375 10.625C22.8217 10.625 21.5625 11.8842 21.5625 13.4375C21.5625 14.9908 22.8217 16.25 24.375 16.25C25.9283 16.25 27.1875 14.9908 27.1875 13.4375ZM24.375 11.875C25.2379 11.875 25.9375 12.5746 25.9375 13.4375C25.9375 14.3004 25.2379 15 24.375 15C23.5121 15 22.8125 14.3004 22.8125 13.4375C22.8125 12.5746 23.5121 11.875 24.375 11.875Z" fill="#FF3551"/>
</svg>
