<svg width="36" height="36" viewBox="0 0 36 36" fill="none" xmlns="http://www.w3.org/2000/svg">
<path d="M22.2855 25.623C25.0803 25.2921 27.8263 24.6325 30.4665 23.658C28.2306 21.1812 26.9951 17.9617 27 14.625V13.5C27 11.1131 26.0518 8.82387 24.364 7.13604C22.6762 5.44821 20.387 4.5 18 4.5C15.6131 4.5 13.3239 5.44821 11.6361 7.13604C9.94825 8.82387 9.00004 11.1131 9.00004 13.5V14.625C9.00456 17.9619 7.76852 21.1814 5.53203 23.658C8.13154 24.618 10.872 25.2855 13.7145 25.623M22.2855 25.623C19.4385 25.9607 16.5616 25.9607 13.7145 25.623M22.2855 25.623C22.5017 26.2978 22.5554 27.0141 22.4424 27.7136C22.3294 28.4131 22.0528 29.076 21.6351 29.6484C21.2174 30.2207 20.6705 30.6864 20.0388 31.0074C19.4072 31.3284 18.7086 31.4958 18 31.4958C17.2915 31.4958 16.5929 31.3284 15.9612 31.0074C15.3296 30.6864 14.7826 30.2207 14.365 29.6484C13.9473 29.076 13.6707 28.4131 13.5577 27.7136C13.4446 27.0141 13.4984 26.2978 13.7145 25.623M4.68604 11.25C5.10899 8.73745 6.23673 6.39667 7.93803 4.5M28.062 4.5C29.7633 6.39667 30.8911 8.73745 31.314 11.25" stroke="black" stroke-width="2" stroke-linecap="round" stroke-linejoin="round"/>
</svg>
