<svg width="84" height="40" viewBox="0 0 84 40" fill="none" xmlns="http://www.w3.org/2000/svg">
<path d="M0 20C0 8.95431 8.95431 0 20 0C31.0457 0 40 8.95431 40 20C40 31.0457 31.0457 40 20 40C8.95431 40 0 31.0457 0 20Z" fill="#F7F7F7"/>
<g clip-path="url(#clip0_30332_2995)">
<path d="M20.4466 18.547C20.4317 19.657 21.4889 20.2764 22.2853 20.6447C23.1034 21.0225 23.3783 21.2648 23.375 21.6028C23.3689 22.1199 22.7224 22.3481 22.1174 22.357C21.0618 22.3725 20.4481 22.0865 19.9602 21.8702L19.5799 23.5588C20.0695 23.7729 20.9759 23.9596 21.9159 23.9678C24.1223 23.9678 25.5658 22.9341 25.5736 21.3315C25.5823 19.2976 22.6092 19.185 22.6296 18.2759C22.6366 18.0003 22.9137 17.7061 23.5211 17.6313C23.8217 17.5935 24.6516 17.5646 25.5924 17.9758L25.9617 16.342C25.4557 16.1672 24.8054 15.9998 23.9958 15.9998C21.919 15.9998 20.4584 17.0475 20.4466 18.547ZM29.5101 16.1405C29.1072 16.1405 28.7677 16.3635 28.6162 16.7058L25.4644 23.8478H27.6692L28.1079 22.697H30.8022L31.0567 23.8478H33L31.3042 16.1405H29.5101ZM29.8186 18.2225L30.4548 21.1167H28.7122L29.8186 18.2225ZM17.7733 16.1406L16.0354 23.8477H18.1364L19.8736 16.1404L17.7733 16.1406ZM14.6652 16.1406L12.4784 21.3864L11.5938 16.9259C11.49 16.428 11.0801 16.1405 10.6249 16.1405H7.05007L7 16.3643C7.73389 16.5154 8.56772 16.7592 9.07289 17.02C9.38205 17.1793 9.4702 17.3186 9.57177 17.6972L11.2472 23.8478H13.4675L16.8715 16.1405L14.6652 16.1406Z" fill="url(#paint0_linear_30332_2995)"/>
</g>
<path d="M44 20C44 8.95431 52.9543 0 64 0C75.0457 0 84 8.95431 84 20C84 31.0457 75.0457 40 64 40C52.9543 40 44 31.0457 44 20Z" fill="#F7F7F7"/>
<g clip-path="url(#clip1_30332_2995)">
<path d="M55.7267 29.9006V28.5769C55.7267 28.0694 55.4145 27.7385 54.8794 27.7385C54.6119 27.7385 54.322 27.8267 54.1213 28.1136C53.9653 27.8709 53.7424 27.7385 53.4079 27.7385C53.1849 27.7385 52.9621 27.8046 52.7836 28.0474V27.7826H52.3154V29.9006H52.7836V28.7313C52.7836 28.3563 52.9843 28.1797 53.2965 28.1797C53.6085 28.1797 53.7647 28.3783 53.7647 28.7313V29.9006H54.2329V28.7313C54.2329 28.3563 54.4558 28.1797 54.7456 28.1797C55.0578 28.1797 55.2138 28.3783 55.2138 28.7313V29.9006H55.7267ZM62.6605 27.7826H61.9025V27.1428H61.4343V27.7826H61.0107V28.2017H61.4342V29.1726C61.4342 29.658 61.6349 29.9447 62.17 29.9447C62.3707 29.9447 62.5936 29.8786 62.7498 29.7904L62.6159 29.3932C62.4821 29.4814 62.3261 29.5035 62.2146 29.5035C61.9917 29.5035 61.9025 29.3712 61.9025 29.1505V28.2017H62.6605V27.7826ZM66.6291 27.7384C66.3616 27.7384 66.1833 27.8709 66.0718 28.0474V27.7826H65.6036V29.9006H66.0718V28.7093C66.0718 28.3563 66.2278 28.1577 66.5176 28.1577C66.6068 28.1577 66.7183 28.1798 66.8075 28.2018L66.9412 27.7606C66.8521 27.7385 66.7183 27.7385 66.6291 27.7385M60.6317 27.9592C60.4086 27.8047 60.0965 27.7386 59.7621 27.7386C59.2271 27.7386 58.8704 28.0033 58.8704 28.4225C58.8704 28.7756 59.1379 28.9741 59.6061 29.0403L59.829 29.0624C60.0743 29.1064 60.2081 29.1727 60.2081 29.283C60.2081 29.4374 60.0297 29.5478 59.7175 29.5478C59.4053 29.5478 59.1601 29.4374 59.004 29.3272L58.7811 29.6801C59.0264 29.8566 59.3608 29.9448 59.6952 29.9448C60.3195 29.9448 60.6763 29.6581 60.6763 29.2609C60.6763 28.8858 60.3864 28.6873 59.9404 28.6211L59.7175 28.599C59.5168 28.5769 59.3608 28.5329 59.3608 28.4005C59.3608 28.246 59.5168 28.1578 59.7621 28.1578C60.0297 28.1578 60.2972 28.2681 60.431 28.3343L60.6317 27.9592ZM73.0726 27.7386C72.805 27.7386 72.6266 27.871 72.5151 28.0475V27.7827H72.0469V29.9007H72.5151V28.7094C72.5151 28.3564 72.6712 28.1578 72.961 28.1578C73.0502 28.1578 73.1617 28.1799 73.2509 28.2019L73.3847 27.7607C73.2955 27.7386 73.1617 27.7386 73.0726 27.7386ZM67.0973 28.8417C67.0973 29.4815 67.5432 29.9448 68.2344 29.9448C68.5465 29.9448 68.7695 29.8787 68.9924 29.7022L68.7695 29.3272C68.5911 29.4595 68.4128 29.5256 68.2121 29.5256C67.8331 29.5256 67.5655 29.2609 67.5655 28.8417C67.5655 28.4446 67.8331 28.1798 68.2121 28.1578C68.4128 28.1578 68.5911 28.2239 68.7695 28.3564L68.9924 27.9813C68.7695 27.8047 68.5465 27.7386 68.2344 27.7386C67.5432 27.7386 67.0973 28.2019 67.0973 28.8417ZM71.4227 28.8417V27.7827H70.9545V28.0475C70.7984 27.849 70.5755 27.7386 70.2856 27.7386C69.6836 27.7386 69.2154 28.2019 69.2154 28.8417C69.2154 29.4815 69.6836 29.9448 70.2856 29.9448C70.5977 29.9448 70.8207 29.8346 70.9545 29.636V29.9007H71.4227V28.8417ZM69.7059 28.8417C69.7059 28.4666 69.9511 28.1578 70.3524 28.1578C70.7315 28.1578 70.9991 28.4446 70.9991 28.8417C70.9991 29.2168 70.7315 29.5256 70.3524 29.5256C69.9511 29.5035 69.7059 29.2168 69.7059 28.8417ZM64.1098 27.7386C63.4855 27.7386 63.0395 28.1798 63.0395 28.8417C63.0395 29.5036 63.4854 29.9448 64.132 29.9448C64.4441 29.9448 64.7563 29.8566 65.0016 29.6581L64.7786 29.3272C64.6002 29.4595 64.3773 29.5478 64.1544 29.5478C63.8645 29.5478 63.5746 29.4154 63.5077 29.0402H65.0908V28.8638C65.1131 28.1798 64.7118 27.7386 64.1098 27.7386ZM64.1097 28.1357C64.3994 28.1357 64.6002 28.3123 64.6447 28.6432H63.53C63.5745 28.3564 63.7752 28.1357 64.1097 28.1357ZM75.7256 28.8417V26.9443H75.2574V28.0475C75.1013 27.849 74.8783 27.7386 74.5885 27.7386C73.9865 27.7386 73.5183 28.2019 73.5183 28.8417C73.5183 29.4815 73.9865 29.9448 74.5885 29.9448C74.9007 29.9448 75.1236 29.8346 75.2574 29.636V29.9007H75.7256V28.8417ZM74.0089 28.8417C74.0089 28.4666 74.254 28.1578 74.6554 28.1578C75.0344 28.1578 75.302 28.4446 75.302 28.8417C75.302 29.2168 75.0344 29.5256 74.6554 29.5256C74.254 29.5035 74.0089 29.2168 74.0089 28.8417ZM58.3574 28.8417V27.7827H57.8892V28.0475C57.7331 27.849 57.5101 27.7386 57.2203 27.7386C56.6183 27.7386 56.1501 28.2019 56.1501 28.8417C56.1501 29.4815 56.6183 29.9448 57.2203 29.9448C57.5325 29.9448 57.7554 29.8346 57.8892 29.636V29.9007H58.3574V28.8417ZM56.6183 28.8417C56.6183 28.4666 56.8636 28.1578 57.2649 28.1578C57.6439 28.1578 57.9115 28.4446 57.9115 28.8417C57.9115 29.2168 57.6439 29.5256 57.2649 29.5256C56.8636 29.5035 56.6183 29.2168 56.6183 28.8417Z" fill="black"/>
<path d="M60.4756 11.6992H67.4986V24.1868H60.4756V11.6992Z" fill="#FF5F00"/>
<path d="M60.9215 17.9426C60.9215 15.4054 62.1255 13.155 63.9759 11.6988C62.616 10.6398 60.8993 10 59.0265 10C54.5895 10 51 13.5521 51 17.9426C51 22.3332 54.5895 25.8852 59.0264 25.8852C60.8992 25.8852 62.6159 25.2454 63.9759 24.1863C62.1255 22.7523 60.9215 20.4798 60.9215 17.9426Z" fill="#EB001B"/>
<path d="M76.9742 17.9426C76.9742 22.3331 73.3847 25.8852 68.9478 25.8852C67.075 25.8852 65.3583 25.2454 63.9983 24.1863C65.8711 22.7303 67.0528 20.4798 67.0528 17.9426C67.0528 15.4054 65.8488 13.155 63.9983 11.6988C65.3582 10.6398 67.075 10 68.9478 10C73.3847 10 76.9742 13.5742 76.9742 17.9426Z" fill="#F79E1B"/>
</g>
<defs>
<linearGradient id="paint0_linear_30332_2995" x1="1202.32" y1="39.9516" x2="1224.21" y2="-778.438" gradientUnits="userSpaceOnUse">
<stop stop-color="#222357"/>
<stop offset="1" stop-color="#254AA5"/>
</linearGradient>
<clipPath id="clip0_30332_2995">
<rect width="26" height="8" fill="white" transform="translate(7 16)"/>
</clipPath>
<clipPath id="clip1_30332_2995">
<rect width="26" height="20" fill="white" transform="translate(51 10)"/>
</clipPath>
</defs>
</svg>
