<svg width="48" height="48" viewBox="0 0 48 48" fill="none" xmlns="http://www.w3.org/2000/svg">
<path d="M0 24C0 10.7452 10.7452 0 24 0C37.2548 0 48 10.7452 48 24C48 37.2548 37.2548 48 24 48C10.7452 48 0 37.2548 0 24Z" fill="#E5EEFD"/>
<path d="M21.1928 14.5967C21.2978 13.9643 21.8462 13.5 22.4878 13.5H25.513C26.1547 13.5 26.703 13.9643 26.808 14.5967L27.0565 16.0912C27.13 16.5275 27.4217 16.8915 27.809 17.1062C27.8953 17.1528 27.9805 17.203 28.0657 17.2543C28.4448 17.483 28.9057 17.5542 29.3198 17.399L30.7397 16.867C31.0306 16.7576 31.351 16.755 31.6437 16.8597C31.9364 16.9644 32.1824 17.1695 32.338 17.4387L33.85 20.0602C34.0052 20.3293 34.0599 20.6448 34.0044 20.9505C33.9489 21.2562 33.7867 21.5323 33.5467 21.7297L32.3765 22.6945C32.0347 22.9757 31.8655 23.4097 31.8748 23.8518C31.8765 23.951 31.8765 24.0502 31.8748 24.1493C31.8655 24.5903 32.0347 25.0243 32.3765 25.3055L33.5478 26.2703C34.0425 26.6787 34.1708 27.3845 33.8512 27.9387L32.3368 30.5602C32.1815 30.8292 31.9357 31.0345 31.6433 31.1394C31.3508 31.2443 31.0306 31.242 30.7397 31.133L29.3198 30.601C28.9057 30.4458 28.4448 30.517 28.0645 30.7457C27.9799 30.7971 27.8944 30.8469 27.8078 30.895C27.4217 31.1085 27.13 31.4725 27.0565 31.9088L26.808 33.4033C26.703 34.0368 26.1547 34.5 25.513 34.5H22.4867C21.845 34.5 21.2978 34.0357 21.1917 33.4033L20.9432 31.9088C20.8708 31.4725 20.5792 31.1085 20.1918 30.8938C20.1053 30.8461 20.0198 30.7967 19.9352 30.7457C19.556 30.517 19.0952 30.4458 18.6798 30.601L17.26 31.133C16.9692 31.2421 16.6491 31.2445 16.3566 31.1399C16.0642 31.0352 15.8184 30.8302 15.6628 30.5613L14.1497 27.9398C13.9944 27.6707 13.9397 27.3552 13.9953 27.0495C14.0508 26.7438 14.213 26.4677 14.453 26.2703L15.6243 25.3055C15.965 25.0255 16.1342 24.5903 16.126 24.1493C16.1242 24.0502 16.1242 23.951 16.126 23.8518C16.1342 23.4085 15.965 22.9757 15.6243 22.6945L14.453 21.7297C14.2133 21.5324 14.0513 21.2565 13.9958 20.9511C13.9402 20.6456 13.9947 20.3304 14.1497 20.0613L15.6628 17.4398C15.8182 17.1705 16.0642 16.9651 16.3569 16.8602C16.6496 16.7553 16.9701 16.7577 17.2612 16.867L18.6798 17.399C19.0952 17.5542 19.556 17.483 19.9352 17.2543C20.0192 17.203 20.1055 17.154 20.1918 17.105C20.5792 16.8915 20.8708 16.5275 20.9432 16.0912L21.1928 14.5967Z" stroke="#0D50E5" stroke-width="1.3" stroke-linecap="round" stroke-linejoin="round"/>
<path d="M27.5 24C27.5 24.9283 27.1313 25.8185 26.4749 26.4749C25.8185 27.1313 24.9283 27.5 24 27.5C23.0717 27.5 22.1815 27.1313 21.5251 26.4749C20.8687 25.8185 20.5 24.9283 20.5 24C20.5 23.0717 20.8687 22.1815 21.5251 21.5251C22.1815 20.8687 23.0717 20.5 24 20.5C24.9283 20.5 25.8185 20.8687 26.4749 21.5251C27.1313 22.1815 27.5 23.0717 27.5 24Z" stroke="#0D50E5" stroke-width="1.5" stroke-linecap="round" stroke-linejoin="round"/>
</svg>
