<svg width="12" height="12" viewBox="0 0 12 12" fill="none" xmlns="http://www.w3.org/2000/svg">
<path fill-rule="evenodd" clip-rule="evenodd" d="M3.75005 3C3.75005 2.40326 3.9871 1.83097 4.40906 1.40901C4.83101 0.987053 5.40331 0.75 6.00005 0.75C6.59679 0.75 7.16908 0.987053 7.59104 1.40901C8.013 1.83097 8.25005 2.40326 8.25005 3C8.25005 3.59674 8.013 4.16903 7.59104 4.59099C7.16908 5.01295 6.59679 5.25 6.00005 5.25C5.40331 5.25 4.83101 5.01295 4.40906 4.59099C3.9871 4.16903 3.75005 3.59674 3.75005 3ZM1.87555 10.0525C1.89241 8.96974 2.33437 7.93703 3.10603 7.17729C3.87769 6.41755 4.91715 5.99172 6.00005 5.99172C7.08294 5.99172 8.12241 6.41755 8.89407 7.17729C9.66573 7.93703 10.1077 8.96974 10.1245 10.0525C10.1258 10.1254 10.1059 10.1971 10.0671 10.2588C10.0283 10.3205 9.97231 10.3696 9.90605 10.4C8.68063 10.9619 7.34813 11.2518 6.00005 11.25C4.60705 11.25 3.28355 10.946 2.09405 10.4C2.02779 10.3696 1.97184 10.3205 1.93303 10.2588C1.89422 10.1971 1.87425 10.1254 1.87555 10.0525Z" fill="#B5B9B9"/>
</svg>
