<svg width="20" height="20" viewBox="0 0 20 20" fill="none" xmlns="http://www.w3.org/2000/svg">
<path d="M1.25 7.2251V14.3751C1.25 15.0381 1.51339 15.674 1.98223 16.1429C2.45107 16.6117 3.08696 16.8751 3.75 16.8751H16.25C16.913 16.8751 17.5489 16.6117 18.0178 16.1429C18.4866 15.674 18.75 15.0381 18.75 14.3751V7.2251L11.31 11.8026C10.916 12.045 10.4626 12.1733 10 12.1733C9.53745 12.1733 9.08396 12.045 8.69 11.8026L1.25 7.2251Z" fill="#0D50E5"/>
<path d="M18.75 5.75667V5.625C18.75 4.96196 18.4866 4.32607 18.0178 3.85723C17.5489 3.38839 16.913 3.125 16.25 3.125H3.75C3.08696 3.125 2.45107 3.38839 1.98223 3.85723C1.51339 4.32607 1.25 4.96196 1.25 5.625V5.75667L9.345 10.7383C9.54198 10.8595 9.76872 10.9237 10 10.9237C10.2313 10.9237 10.458 10.8595 10.655 10.7383L18.75 5.75667Z" fill="#0D50E5"/>
</svg>
