<svg width="12" height="13" viewBox="0 0 12 13" fill="none" xmlns="http://www.w3.org/2000/svg">
<path d="M4.57662 3.204C5.21012 2.068 5.52662 1.5 6.00012 1.5C6.47362 1.5 6.79012 2.068 7.42362 3.204L7.58762 3.498C7.76762 3.821 7.85762 3.9825 7.99762 4.089C8.13762 4.1955 8.31262 4.235 8.66262 4.314L8.98062 4.386C10.2106 4.6645 10.8251 4.8035 10.9716 5.274C11.1176 5.744 10.6986 6.2345 9.86012 7.215L9.64312 7.4685C9.40512 7.747 9.28562 7.8865 9.23212 8.0585C9.17862 8.231 9.19662 8.417 9.23262 8.7885L9.26562 9.127C9.39212 10.4355 9.45562 11.0895 9.07262 11.38C8.68962 11.6705 8.11362 11.4055 6.96262 10.8755L6.66412 10.7385C6.33712 10.5875 6.17362 10.5125 6.00012 10.5125C5.82662 10.5125 5.66312 10.5875 5.33612 10.7385L5.03812 10.8755C3.88662 11.4055 3.31062 11.6705 2.92812 11.3805C2.54462 11.0895 2.60812 10.4355 2.73462 9.127L2.76762 8.789C2.80362 8.417 2.82162 8.231 2.76762 8.059C2.71462 7.8865 2.59512 7.747 2.35712 7.469L2.14012 7.215C1.30162 6.235 0.882617 5.7445 1.02862 5.274C1.17462 4.8035 1.79012 4.664 3.02012 4.386L3.33812 4.314C3.68762 4.235 3.86212 4.1955 4.00262 4.089C4.14312 3.9825 4.23262 3.821 4.41262 3.498L4.57662 3.204Z" fill="#163300"/>
</svg>
