<svg width="40" height="40" viewBox="0 0 40 40" fill="none" xmlns="http://www.w3.org/2000/svg">
<path d="M0 20C0 8.95431 8.95431 0 20 0C31.0457 0 40 8.95431 40 20C40 31.0457 31.0457 40 20 40C8.95431 40 0 31.0457 0 20Z" fill="#E5EEFD"/>
<path d="M20 10C14.4774 10 10 14.4774 10 20C10 25.5139 14.4865 30 20 30C25.5221 30 30 25.5221 30 20C30 14.4861 25.5139 10 20 10ZM25.1923 21.5385H19.4231C19.3721 21.5385 19.3232 21.5182 19.2871 21.4821C19.251 21.4461 19.2308 21.3972 19.2308 21.3462V13.2692C19.2308 13.2182 19.251 13.1693 19.2871 13.1332C19.3232 13.0972 19.3721 13.0769 19.4231 13.0769H20.5769C20.6279 13.0769 20.6768 13.0972 20.7129 13.1332C20.749 13.1693 20.7692 13.2182 20.7692 13.2692V20H25.1923C25.2433 20 25.2922 20.0203 25.3283 20.0563C25.3644 20.0924 25.3846 20.1413 25.3846 20.1923V21.3462C25.3846 21.3972 25.3644 21.4461 25.3283 21.4821C25.2922 21.5182 25.2433 21.5385 25.1923 21.5385Z" fill="#0D50E5"/>
</svg>
