<svg width="20" height="20" viewBox="0 0 20 20" fill="none" xmlns="http://www.w3.org/2000/svg">
<g clip-path="url(#clip0_28608_2352)">
<path fill-rule="evenodd" clip-rule="evenodd" d="M4.25476 15.745C7.4279 18.9181 12.5721 18.9181 15.7452 15.745C18.9184 12.5719 18.9184 7.42765 15.7452 4.25451C12.5721 1.08137 7.4279 1.08137 4.25476 4.25451C1.08162 7.42765 1.08162 12.5719 4.25476 15.745ZM12.8343 7.79004C12.8342 7.62441 12.7684 7.4656 12.6513 7.34849C12.5341 7.23137 12.3753 7.16553 12.2097 7.16543H8.67417C8.5903 7.16247 8.50668 7.17643 8.42831 7.20649C8.34995 7.23655 8.27844 7.28208 8.21805 7.34037C8.15766 7.39866 8.10964 7.46852 8.07683 7.54578C8.04403 7.62304 8.02713 7.70611 8.02713 7.79004C8.02713 7.87397 8.04403 7.95705 8.07683 8.0343C8.10964 8.11156 8.15766 8.18142 8.21805 8.23971C8.27844 8.298 8.34995 8.34354 8.42831 8.37359C8.50668 8.40365 8.59029 8.41761 8.67417 8.41465L10.7012 8.41465L7.34835 11.7675C7.23114 11.8847 7.16529 12.0437 7.16529 12.2095C7.16529 12.3752 7.23114 12.5342 7.34835 12.6514C7.46556 12.7686 7.62453 12.8345 7.79029 12.8345C7.95605 12.8345 8.11502 12.7686 8.23223 12.6514L11.5851 9.29854L11.5851 11.3256C11.5908 11.4874 11.6591 11.6407 11.7756 11.7532C11.8921 11.8657 12.0478 11.9285 12.2097 11.9285C12.3717 11.9285 12.5273 11.8657 12.6438 11.7532C12.7603 11.6407 12.8286 11.4874 12.8343 11.3256V7.79004Z" fill="#141414"/>
</g>
<defs>
<clipPath id="clip0_28608_2352">
<rect width="20" height="20" fill="white"/>
</clipPath>
</defs>
</svg>
