<svg width="40" height="40" viewBox="0 0 40 40" fill="none" xmlns="http://www.w3.org/2000/svg">
<path d="M0 20C0 8.95431 8.95431 0 20 0C31.0457 0 40 8.95431 40 20C40 31.0457 31.0457 40 20 40C8.95431 40 0 31.0457 0 20Z" fill="#F7F9F9"/>
<path fill-rule="evenodd" clip-rule="evenodd" d="M20 8C21.5758 7.99999 23.1363 8.31038 24.5922 8.91343C26.0481 9.51648 27.371 10.4004 28.4853 11.5147C29.5996 12.629 30.4835 13.9519 31.0866 15.4078C31.6896 16.8637 32 18.4241 32 20C32 26.6274 26.6274 32 20 32C13.3726 32 8 26.6274 8 20C8 13.3726 13.3726 8 20 8ZM21.2 21.2H18.8C15.8291 21.2 13.2786 22.9993 12.1785 25.5677C13.9191 28.0084 16.7737 29.6 20 29.6C23.2262 29.6 26.0808 28.0084 27.8215 25.5675C26.7214 22.9993 24.1709 21.2 21.2 21.2ZM20 11.6C18.0118 11.6 16.4 13.2118 16.4 15.2C16.4 17.1882 18.0118 18.8 20 18.8C21.9882 18.8 23.6 17.1882 23.6 15.2C23.6 13.2118 21.9882 11.6 20 11.6Z" fill="#D7DCDC"/>
</svg>
