<svg width="20" height="20" viewBox="0 0 20 20" fill="none" xmlns="http://www.w3.org/2000/svg">
<path d="M17.4375 5.29981C14.825 1.24981 9.475 0.0498087 5.3375 2.56231C1.3 5.07481 1.3113e-06 10.5498 2.6125 14.5873L2.825 14.9123L1.95 18.1873L5.225 17.3123L5.55 17.5248C6.9625 18.2873 8.5 18.7248 10.025 18.7248C11.6625 18.7248 13.3 18.2873 14.7125 17.4123C18.75 14.7873 19.95 9.42481 17.4375 5.27481V5.29981ZM15.15 13.7248C14.7125 14.3748 14.1625 14.8123 13.4 14.9248C12.9625 14.9248 12.4125 15.1373 10.2375 14.2748C8.3875 13.3998 6.85 11.9748 5.7625 10.3373C5.1125 9.57481 4.775 8.58731 4.675 7.59981C4.675 6.72481 5 5.96231 5.55 5.41231C5.7625 5.19981 5.9875 5.08731 6.2 5.08731H6.75C6.9625 5.08731 7.1875 5.08731 7.3 5.52481C7.5125 6.07481 8.0625 7.38731 8.0625 7.49981C8.175 7.61231 8.125 8.44981 7.625 8.92481C7.35 9.23731 7.3 9.24981 7.4125 9.47481C7.85 10.1248 8.4 10.7873 8.9375 11.3373C9.5875 11.8873 10.25 12.3248 11.0125 12.6498C11.225 12.7623 11.45 12.7623 11.5625 12.5373C11.675 12.3248 12.2125 11.7748 12.4375 11.5498C12.65 11.3373 12.7625 11.3373 12.9875 11.4373L14.7375 12.3123C14.95 12.4248 15.175 12.5248 15.2875 12.6373C15.4 12.9623 15.4 13.3998 15.175 13.7248H15.15Z" fill="#0D50E5"/>
</svg>
