<svg width="160" height="160" viewBox="0 0 160 160" fill="none" xmlns="http://www.w3.org/2000/svg">
<path d="M0 80C0 35.8172 35.8172 0 80 0C124.183 0 160 35.8172 160 80C160 124.183 124.183 160 80 160C35.8172 160 0 124.183 0 80Z" fill="#E5E7E7" fill-opacity="0.4"/>
<path d="M112.996 43.3721V58.2419C87.3567 58.2419 66.0699 77.1769 62.4503 101.763C62.0879 104.182 61.9089 106.67 61.9089 109.196V116.629H47V109.196C47 106.679 47.1364 104.204 47.4263 101.763C49.396 84.2738 58.2765 68.8511 71.2669 58.2419H47V43.3721H112.996Z" fill="#141414"/>
<path d="M112.996 84.8103V69.9404C93.8404 69.9404 77.8487 83.6495 74.357 101.759C73.888 104.17 73.645 106.654 73.645 109.192V116.625H113V101.755H89.7135C92.8769 91.9327 102.12 84.806 113 84.806L112.996 84.8103Z" fill="#141414"/>
</svg>
