<svg width="29" height="28" viewBox="0 0 29 28" fill="none" xmlns="http://www.w3.org/2000/svg">
<path d="M0.600098 14C0.600098 6.26801 6.86811 0 14.6001 0C22.3321 0 28.6001 6.26801 28.6001 14C28.6001 21.732 22.3321 28 14.6001 28C6.86811 28 0.600098 21.732 0.600098 14Z" fill="#E7EDED"/>
<path d="M16.7214 16.1213C16.4429 16.3999 16.1121 16.6209 15.7482 16.7717C15.3842 16.9224 14.9941 17 14.6001 17C14.2061 17 13.816 16.9224 13.452 16.7717C13.0881 16.6209 12.7573 16.3999 12.4788 16.1213M20.6001 14C20.6001 14.7879 20.4449 15.5681 20.1434 16.2961C19.8418 17.0241 19.3999 17.6855 18.8427 18.2426C18.2856 18.7998 17.6242 19.2417 16.8962 19.5433C16.1682 19.8448 15.388 20 14.6001 20C13.8122 20 13.032 19.8448 12.304 19.5433C11.576 19.2417 10.9146 18.7998 10.3575 18.2426C9.80031 17.6855 9.35835 17.0241 9.05682 16.2961C8.75529 15.5681 8.6001 14.7879 8.6001 14C8.6001 12.4087 9.23224 10.8826 10.3575 9.75736C11.4827 8.63214 13.0088 8 14.6001 8C16.1914 8 17.7175 8.63214 18.8427 9.75736C19.968 10.8826 20.6001 12.4087 20.6001 14ZM13.1001 12.5C13.1001 12.776 12.9881 13 12.8501 13C12.7121 13 12.6001 12.776 12.6001 12.5C12.6001 12.224 12.7121 12 12.8501 12C12.9881 12 13.1001 12.224 13.1001 12.5ZM12.8501 12.5H12.8554V12.51H12.8501V12.5ZM16.6001 12.5C16.6001 12.776 16.4881 13 16.3501 13C16.2121 13 16.1001 12.776 16.1001 12.5C16.1001 12.224 16.2121 12 16.3501 12C16.4881 12 16.6001 12.224 16.6001 12.5ZM16.3501 12.5H16.3554V12.51H16.3501V12.5Z" stroke="#141414" stroke-width="1.2" stroke-linecap="round" stroke-linejoin="round"/>
</svg>
