<svg width="29" height="28" viewBox="0 0 29 28" fill="none" xmlns="http://www.w3.org/2000/svg">
<path d="M0.799805 14C0.799805 6.26801 7.06782 0 14.7998 0C22.5318 0 28.7998 6.26801 28.7998 14C28.7998 21.732 22.5318 28 14.7998 28C7.06782 28 0.799805 21.732 0.799805 14Z" fill="#FDEBEE"/>
<path d="M14.2998 13.5L14.3271 13.4867C14.4126 13.444 14.5086 13.4266 14.6036 13.4368C14.6986 13.4469 14.7887 13.484 14.8633 13.5438C14.9379 13.6036 14.9937 13.6835 15.0243 13.774C15.0549 13.8645 15.0589 13.9619 15.0358 14.0547L14.5638 15.9453C14.5406 16.0381 14.5444 16.1356 14.5749 16.2263C14.6054 16.3169 14.6613 16.3969 14.7359 16.4568C14.8105 16.5166 14.9007 16.5538 14.9958 16.564C15.0909 16.5741 15.1869 16.5568 15.2725 16.514L15.2998 16.5M20.7998 14C20.7998 14.7879 20.6446 15.5681 20.3431 16.2961C20.0416 17.0241 19.5996 17.6855 19.0424 18.2426C18.4853 18.7998 17.8239 19.2417 17.0959 19.5433C16.368 19.8448 15.5877 20 14.7998 20C14.0119 20 13.2317 19.8448 12.5037 19.5433C11.7758 19.2417 11.1143 18.7998 10.5572 18.2426C10 17.6855 9.55806 17.0241 9.25653 16.2961C8.955 15.5681 8.7998 14.7879 8.7998 14C8.7998 12.4087 9.43195 10.8826 10.5572 9.75736C11.6824 8.63214 13.2085 8 14.7998 8C16.3911 8 17.9172 8.63214 19.0424 9.75736C20.1677 10.8826 20.7998 12.4087 20.7998 14ZM14.7998 11.5H14.8051V11.5053H14.7998V11.5Z" stroke="#E22900" stroke-width="1.2" stroke-linecap="round" stroke-linejoin="round"/>
</svg>
