<svg width="40" height="40" viewBox="0 0 40 40" fill="none" xmlns="http://www.w3.org/2000/svg">
<path d="M16.6665 21.6669C17.3823 22.6238 18.2954 23.4156 19.3441 23.9885C20.3927 24.5614 21.5523 24.9021 22.7443 24.9875C23.9362 25.0729 25.1325 24.9009 26.2521 24.4832C27.3717 24.0656 28.3884 23.4121 29.2332 22.5669L34.2332 17.5669C35.7512 15.9952 36.5911 13.8902 36.5721 11.7053C36.5531 9.52028 35.6767 7.43018 34.1317 5.88511C32.5866 4.34005 30.4965 3.46364 28.3115 3.44465C26.1265 3.42566 24.0215 4.26562 22.4498 5.7836L19.5832 8.6336" stroke="#141414" stroke-width="4" stroke-linecap="round" stroke-linejoin="round"/>
<path d="M23.3332 18.334C22.6174 17.3772 21.7042 16.5854 20.6556 16.0125C19.6069 15.4395 18.4473 15.0988 17.2554 15.0135C16.0635 14.9281 14.8672 15.1001 13.7476 15.5177C12.628 15.9354 11.6113 16.5889 10.7665 17.434L5.76651 22.434C4.24853 24.0057 3.40857 26.1107 3.42756 28.2957C3.44655 30.4807 4.32296 32.5708 5.86802 34.1159C7.41309 35.6609 9.50319 36.5373 11.6882 36.5563C13.8731 36.5753 15.9782 35.7354 17.5498 34.2174L20.3998 31.3674" stroke="#141414" stroke-width="4" stroke-linecap="round" stroke-linejoin="round"/>
</svg>
