<svg width="38" height="12" viewBox="0 0 38 12" fill="none" xmlns="http://www.w3.org/2000/svg">
<g clip-path="url(#clip0_30244_2625)">
<path d="M19.1417 3.82106C19.1206 5.48603 20.6255 6.41509 21.7592 6.96752C22.9239 7.53427 23.3151 7.89774 23.3105 8.40463C23.3018 9.18029 22.3814 9.52265 21.5202 9.53596C20.0176 9.55923 19.1439 9.13027 18.4493 8.80584L17.908 11.3387C18.6049 11.6598 19.8953 11.9399 21.2333 11.9521C24.3743 11.9521 26.4292 10.4017 26.4403 7.99779C26.4526 4.9469 22.2204 4.77803 22.2493 3.41437C22.2593 3.00087 22.6538 2.55962 23.5184 2.44743C23.9464 2.39075 25.1277 2.34738 26.4671 2.96415L26.9928 0.513547C26.2725 0.251282 25.3467 0.000148773 24.1942 0.000148773C21.2378 0.000148773 19.1585 1.57172 19.1417 3.82106ZM32.044 0.211233C31.4705 0.211233 30.9872 0.545787 30.7715 1.05919L26.2848 11.7721H29.4234L30.048 10.046H33.8834L34.2457 11.7721H37.012L34.598 0.211233H32.044ZM32.4831 3.33427L33.3889 7.67552H30.9082L32.4831 3.33427ZM15.3363 0.211378L12.8623 11.772H15.8532L18.326 0.211089L15.3363 0.211378ZM10.9118 0.211378L7.7987 8.08005L6.53942 1.3894C6.39166 0.64251 5.80814 0.211233 5.16014 0.211233H0.0712771L0 0.546944C1.04472 0.773643 2.23171 1.13928 2.95084 1.53051C3.39094 1.7695 3.51643 1.97841 3.66101 2.54632L6.04612 11.7721H9.20675L14.0524 0.211233L10.9118 0.211378Z" fill="url(#paint0_linear_30244_2625)"/>
</g>
<defs>
<linearGradient id="paint0_linear_30244_2625" x1="1701.59" y1="35.9279" x2="1736.19" y2="-1191.56" gradientUnits="userSpaceOnUse">
<stop stop-color="#222357"/>
<stop offset="1" stop-color="#254AA5"/>
</linearGradient>
<clipPath id="clip0_30244_2625">
<rect width="37.012" height="12" fill="white"/>
</clipPath>
</defs>
</svg>
