<svg width="16" height="12" viewBox="0 0 16 12" fill="none" xmlns="http://www.w3.org/2000/svg">
<g clip-path="url(#clip0_30244_2643)">
<path d="M2.80666 11.9403V11.146C2.80666 10.8415 2.62129 10.643 2.30356 10.643C2.14473 10.643 1.97263 10.696 1.85347 10.8681C1.76085 10.7224 1.62849 10.643 1.42991 10.643C1.29749 10.643 1.16519 10.6827 1.05924 10.8283V10.6695H0.78125V11.9403H1.05924V11.2387C1.05924 11.0137 1.1784 10.9077 1.36376 10.9077C1.54901 10.9077 1.64175 11.0269 1.64175 11.2387V11.9403H1.91974V11.2387C1.91974 11.0137 2.05204 10.9077 2.22414 10.9077C2.40951 10.9077 2.50213 11.0269 2.50213 11.2387V11.9403H2.80666ZM6.9235 10.6695H6.47347V10.2856H6.19548V10.6695H5.94396V10.9209H6.19542V11.5034C6.19542 11.7947 6.31458 11.9667 6.63231 11.9667C6.75146 11.9667 6.88376 11.9271 6.97651 11.8741L6.89703 11.6358C6.81761 11.6888 6.72499 11.702 6.65878 11.702C6.52642 11.702 6.47347 11.6226 6.47347 11.4902V10.9209H6.9235V10.6695ZM9.27984 10.6429C9.12101 10.6429 9.01512 10.7224 8.94891 10.8283V10.6695H8.67092V11.9403H8.94891V11.2255C8.94891 11.0137 9.04153 10.8945 9.21363 10.8945C9.26658 10.8945 9.33279 10.9078 9.38573 10.921L9.46515 10.6563C9.4122 10.643 9.33279 10.643 9.27984 10.643M5.71892 10.7754C5.5865 10.6827 5.40119 10.6431 5.20262 10.6431C4.88495 10.6431 4.67317 10.8019 4.67317 11.0534C4.67317 11.2653 4.832 11.3844 5.10999 11.4241L5.24235 11.4374C5.38798 11.4638 5.4674 11.5035 5.4674 11.5697C5.4674 11.6623 5.36151 11.7286 5.17614 11.7286C4.99078 11.7286 4.84521 11.6623 4.75253 11.5962L4.62016 11.808C4.76579 11.9139 4.96437 11.9668 5.16288 11.9668C5.53355 11.9668 5.74539 11.7948 5.74539 11.5565C5.74539 11.3314 5.57329 11.2123 5.30851 11.1726L5.17614 11.1593C5.05699 11.146 4.96437 11.1196 4.96437 11.0402C4.96437 10.9475 5.05699 10.8946 5.20262 10.8946C5.36151 10.8946 5.52035 10.9607 5.59976 11.0005L5.71892 10.7754ZM13.1056 10.6431C12.9467 10.6431 12.8408 10.7225 12.7746 10.8284V10.6695H12.4966V11.9403H12.7746V11.2255C12.7746 11.0137 12.8672 10.8946 13.0393 10.8946C13.0923 10.8946 13.1585 10.9079 13.2114 10.9211L13.2909 10.6563C13.2379 10.6431 13.1585 10.6431 13.1056 10.6431ZM9.55783 11.3049C9.55783 11.6888 9.82256 11.9668 10.233 11.9668C10.4183 11.9668 10.5506 11.9271 10.683 11.8212L10.5506 11.5962C10.4447 11.6756 10.3389 11.7153 10.2197 11.7153C9.99466 11.7153 9.83582 11.5565 9.83582 11.3049C9.83582 11.0667 9.99466 10.9078 10.2197 10.8946C10.3389 10.8946 10.4447 10.9343 10.5506 11.0137L10.683 10.7887C10.5506 10.6827 10.4183 10.6431 10.233 10.6431C9.82256 10.6431 9.55783 10.9211 9.55783 11.3049ZM12.126 11.3049V10.6695H11.848V10.8284C11.7553 10.7093 11.6229 10.6431 11.4508 10.6431C11.0934 10.6431 10.8154 10.9211 10.8154 11.3049C10.8154 11.6888 11.0934 11.9668 11.4508 11.9668C11.6361 11.9668 11.7685 11.9007 11.848 11.7815V11.9403H12.126V11.3049ZM11.1066 11.3049C11.1066 11.0799 11.2522 10.8946 11.4905 10.8946C11.7155 10.8946 11.8744 11.0667 11.8744 11.3049C11.8744 11.53 11.7155 11.7153 11.4905 11.7153C11.2522 11.702 11.1066 11.53 11.1066 11.3049ZM7.784 10.6431C7.41333 10.6431 7.14855 10.9078 7.14855 11.3049C7.14855 11.7021 7.41327 11.9668 7.79721 11.9668C7.98252 11.9668 8.16788 11.9139 8.31351 11.7948L8.18109 11.5962C8.0752 11.6756 7.94284 11.7286 7.81048 11.7286C7.63838 11.7286 7.46628 11.6491 7.42654 11.424H8.36646V11.3182C8.37972 10.9078 8.14147 10.6431 7.784 10.6431ZM7.78394 10.8813C7.95598 10.8813 8.0752 10.9873 8.10161 11.1858H7.43974C7.46621 11.0137 7.58537 10.8813 7.78394 10.8813ZM14.6807 11.3049V10.1665H14.4028V10.8284C14.3101 10.7093 14.1777 10.6431 14.0056 10.6431C13.6482 10.6431 13.3702 10.9211 13.3702 11.3049C13.3702 11.6888 13.6482 11.9668 14.0056 11.9668C14.191 11.9668 14.3233 11.9007 14.4028 11.7815V11.9403H14.6807V11.3049ZM13.6615 11.3049C13.6615 11.0799 13.807 10.8946 14.0454 10.8946C14.2704 10.8946 14.4292 11.0667 14.4292 11.3049C14.4292 11.53 14.2704 11.7153 14.0454 11.7153C13.807 11.702 13.6615 11.53 13.6615 11.3049ZM4.36859 11.3049V10.6695H4.0906V10.8284C3.99791 10.7093 3.86555 10.6431 3.69345 10.6431C3.33604 10.6431 3.05805 10.9211 3.05805 11.3049C3.05805 11.6888 3.33604 11.9668 3.69345 11.9668C3.87882 11.9668 4.01118 11.9007 4.0906 11.7815V11.9403H4.36859V11.3049ZM3.33604 11.3049C3.33604 11.0799 3.48167 10.8946 3.71992 10.8946C3.94497 10.8946 4.10386 11.0667 4.10386 11.3049C4.10386 11.53 3.94497 11.7153 3.71992 11.7153C3.48167 11.702 3.33604 11.53 3.33604 11.3049Z" fill="black"/>
<path d="M5.62598 1.01904H9.79583V8.51157H5.62598V1.01904Z" fill="#FF5F00"/>
<path d="M5.89079 4.76557C5.89079 3.24326 6.60561 1.89298 7.7043 1.01928C6.89686 0.383879 5.87759 0 4.76563 0C2.13124 0 0 2.13124 0 4.76557C0 7.3999 2.13124 9.53114 4.76557 9.53114C5.87753 9.53114 6.8968 9.14726 7.7043 8.5118C6.60561 7.65136 5.89079 6.28788 5.89079 4.76557Z" fill="#EB001B"/>
<path d="M15.4221 4.76557C15.4221 7.39984 13.2908 9.53114 10.6565 9.53114C9.54455 9.53114 8.52527 9.14726 7.71777 8.5118C8.82973 7.63815 9.53134 6.28788 9.53134 4.76557C9.53134 3.24326 8.81647 1.89298 7.71777 1.01928C8.52521 0.383879 9.54455 0 10.6565 0C13.2908 0 15.4221 2.1445 15.4221 4.76557Z" fill="#F79E1B"/>
</g>
<defs>
<clipPath id="clip0_30244_2643">
<rect width="15.4372" height="12" fill="white"/>
</clipPath>
</defs>
</svg>
