<svg width="58" height="56" viewBox="0 0 58 56" fill="none" xmlns="http://www.w3.org/2000/svg">
<rect x="0.790344" y="0.5" width="56.4452" height="55" rx="27.5" fill="#E9F6FF"/>
<rect x="0.790344" y="0.5" width="56.4452" height="55" rx="27.5" stroke="#C0E4FF"/>
<path d="M32.4029 21.21L33.8129 24.03C34.0029 24.42 34.5129 24.79 34.9429 24.87L37.4929 25.29C39.1229 25.56 39.5029 26.74 38.3329 27.92L36.3429 29.91C36.0129 30.24 35.8229 30.89 35.9329 31.36L36.5029 33.82C36.9529 35.76 35.9129 36.52 34.2029 35.5L31.8129 34.08C31.3829 33.82 30.6629 33.82 30.2329 34.08L27.8429 35.5C26.1329 36.51 25.0929 35.76 25.5429 33.82L26.1129 31.36C26.2029 30.88 26.0129 30.23 25.6829 29.9L23.6929 27.91C22.5229 26.74 22.9029 25.56 24.5329 25.28L27.0829 24.86C27.5129 24.79 28.0229 24.41 28.2129 24.02L29.6229 21.2C30.3929 19.68 31.6329 19.68 32.4029 21.21Z" fill="#26A0FC"/>
<path d="M25.0129 21.75H19.0129C18.6029 21.75 18.2629 21.41 18.2629 21C18.2629 20.59 18.6029 20.25 19.0129 20.25H25.0129C25.4229 20.25 25.7629 20.59 25.7629 21C25.7629 21.41 25.4229 21.75 25.0129 21.75Z" fill="#26A0FC"/>
<path d="M22.0129 35.75H19.0129C18.6029 35.75 18.2629 35.41 18.2629 35C18.2629 34.59 18.6029 34.25 19.0129 34.25H22.0129C22.4229 34.25 22.7629 34.59 22.7629 35C22.7629 35.41 22.4229 35.75 22.0129 35.75Z" fill="#26A0FC"/>
<path d="M20.0129 28.75H19.0129C18.6029 28.75 18.2629 28.41 18.2629 28C18.2629 27.59 18.6029 27.25 19.0129 27.25H20.0129C20.4229 27.25 20.7629 27.59 20.7629 28C20.7629 28.41 20.4229 28.75 20.0129 28.75Z" fill="#26A0FC"/>
</svg>
