<svg width="29" height="28" viewBox="0 0 29 28" fill="none" xmlns="http://www.w3.org/2000/svg">
<path d="M0.399902 14C0.399902 6.26801 6.66792 0 14.3999 0C22.1319 0 28.3999 6.26801 28.3999 14C28.3999 21.732 22.1319 28 14.3999 28C6.66792 28 0.399902 21.732 0.399902 14Z" fill="#FF8D28" fill-opacity="0.1"/>
<path d="M12.3999 16L8.3999 12M8.3999 12L12.3999 8M8.3999 12H16.3999C17.4608 12 18.4782 12.4214 19.2283 13.1716C19.9785 13.9217 20.3999 14.9391 20.3999 16C20.3999 17.0609 19.9785 18.0783 19.2283 18.8284C18.4782 19.5786 17.4608 20 16.3999 20H14.3999" stroke="#FF8D28" stroke-width="1.2" stroke-linecap="round" stroke-linejoin="round"/>
</svg>
