<svg width="29" height="28" viewBox="0 0 29 28" fill="none" xmlns="http://www.w3.org/2000/svg">
  <path d="M0.200195 14C0.200195 6.26801 6.46821 0 14.2002 0C21.9322 0 28.2002 6.26801 28.2002 14C28.2002 21.732 21.9322 28 14.2002 28C6.46821 28 0.200195 21.732 0.200195 14Z" fill="#E9FAEF"/>
  <path d="M12.2002 14.5L13.7002 16L16.2002 12.5M20.2002 14C20.2002 14.7879 20.045 15.5681 19.7435 16.2961C19.4419 17.0241 19 17.6855 18.4428 18.2426C17.8857 18.7998 17.2242 19.2417 16.4963 19.5433C15.7683 19.8448 14.9881 20 14.2002 20C13.4123 20 12.632 19.8448 11.9041 19.5433C11.1761 19.2417 10.5147 18.7998 9.95755 18.2426C9.4004 17.6855 8.95845 17.0241 8.65692 16.2961C8.35539 15.5681 8.2002 14.7879 8.2002 14C8.2002 12.4087 8.83234 10.8826 9.95755 9.75736C11.0828 8.63214 12.6089 8 14.2002 8C15.7915 8 17.3176 8.63214 18.4428 9.75736C19.5681 10.8826 20.2002 12.4087 20.2002 14Z" stroke="#34C759" stroke-width="1.2" stroke-linecap="round" stroke-linejoin="round"/>
  </svg>
  