<svg width="20" height="20" viewBox="0 0 20 20" fill="none" xmlns="http://www.w3.org/2000/svg">
<path d="M15.8334 10.0001C15.8334 10.2211 15.7456 10.4331 15.5893 10.5893C15.4331 10.7456 15.2211 10.8334 15.0001 10.8334C14.7791 10.8334 14.5671 10.7456 14.4108 10.5893C14.2545 10.4331 14.1667 10.2211 14.1667 10.0001C14.1667 9.77907 14.2545 9.56711 14.4108 9.41083C14.5671 9.25455 14.7791 9.16675 15.0001 9.16675C15.2211 9.16675 15.4331 9.25455 15.5893 9.41083C15.7456 9.56711 15.8334 9.77907 15.8334 10.0001Z" fill="black"/>
<path fill-rule="evenodd" clip-rule="evenodd" d="M8.28675 2.70825H10.8801C12.4117 2.70825 13.6251 2.70825 14.5742 2.83575C15.5509 2.96742 16.3417 3.24409 16.9659 3.86742C17.7359 4.63825 17.9817 5.66992 18.0709 7.00909C18.5517 7.21992 18.9151 7.66742 18.9542 8.23409C18.9584 8.28492 18.9584 8.33909 18.9584 8.38909V11.6108C18.9584 11.6608 18.9584 11.7149 18.9551 11.7649C18.9151 12.3316 18.5517 12.7799 18.0709 12.9916C17.9817 14.3299 17.7359 15.3616 16.9659 16.1324C16.3417 16.7558 15.5509 17.0324 14.5742 17.1641C13.6242 17.2916 12.4117 17.2916 10.8801 17.2916H8.28675C6.75508 17.2916 5.54175 17.2916 4.59258 17.1641C3.61591 17.0324 2.82508 16.7558 2.20091 16.1324C1.57758 15.5083 1.30091 14.7174 1.16925 13.7408C1.04175 12.7908 1.04175 11.5783 1.04175 10.0466V9.95325C1.04175 8.42159 1.04175 7.20825 1.16925 6.25909C1.30091 5.28242 1.57758 4.49159 2.20091 3.86742C2.82508 3.24409 3.61591 2.96742 4.59258 2.83575C5.54258 2.70825 6.75508 2.70825 8.28675 2.70825ZM16.8067 13.1249H15.1917C13.4042 13.1249 11.8742 11.7683 11.8742 9.99992C11.8742 8.23159 13.4042 6.87492 15.1909 6.87492H16.8059C16.7109 5.75742 16.4967 5.16659 16.0809 4.75159C15.7284 4.39909 15.2451 4.18742 14.4067 4.07492C13.5509 3.95992 12.4217 3.95825 10.8326 3.95825H8.33258C6.74341 3.95825 5.61508 3.95992 4.75758 4.07492C3.92008 4.18742 3.43675 4.39909 3.08425 4.75159C2.73175 5.10409 2.52091 5.58742 2.40841 6.42492C2.29341 7.28159 2.29175 8.40992 2.29175 9.99909C2.29175 11.5883 2.29341 12.7174 2.40841 13.5741C2.52091 14.4116 2.73258 14.8949 3.08508 15.2474C3.43758 15.5999 3.92091 15.8116 4.75925 15.9241C5.61591 16.0391 6.74425 16.0408 8.33342 16.0408H10.8334C12.4226 16.0408 13.5517 16.0391 14.4084 15.9241C15.2459 15.8116 15.7292 15.5999 16.0817 15.2474C16.4976 14.8324 16.7117 14.2424 16.8067 13.1241M4.37508 6.66659C4.37508 6.50083 4.44093 6.34185 4.55814 6.22464C4.67535 6.10743 4.83432 6.04159 5.00008 6.04159H8.33342C8.49918 6.04159 8.65815 6.10743 8.77536 6.22464C8.89257 6.34185 8.95842 6.50083 8.95842 6.66659C8.95842 6.83235 8.89257 6.99132 8.77536 7.10853C8.65815 7.22574 8.49918 7.29159 8.33342 7.29159H5.00008C4.83432 7.29159 4.67535 7.22574 4.55814 7.10853C4.44093 6.99132 4.37508 6.83235 4.37508 6.66659ZM17.4367 8.12492H15.1917C14.0051 8.12492 13.1242 9.00742 13.1242 9.99992C13.1242 10.9924 14.0051 11.8749 15.1909 11.8749H17.4559C17.6276 11.8641 17.7017 11.7483 17.7076 11.6783V8.32159C17.7017 8.25159 17.6276 8.13575 17.4559 8.12575L17.4367 8.12492Z" fill="black"/>
</svg>
