<svg width="24" height="24" viewBox="0 0 24 24" fill="none" xmlns="http://www.w3.org/2000/svg">
<path d="M12.75 8.25C12.75 7.83578 12.4142 7.5 12 7.5C11.5858 7.5 11.25 7.83578 11.25 8.25V8.64713C9.81015 8.65819 8.625 9.81244 8.625 11.261C8.625 12.7166 9.82162 13.875 11.2708 13.875H12.7292C13.374 13.875 13.875 14.3857 13.875 14.989C13.875 15.5923 13.374 16.103 12.7292 16.103H9.375C8.96078 16.103 8.625 16.4387 8.625 16.853C8.625 17.2671 8.96078 17.603 9.375 17.603H11.25V18C11.25 18.4142 11.5858 18.75 12 18.75C12.4142 18.75 12.75 18.4142 12.75 18V17.6029C14.1898 17.5918 15.375 16.4376 15.375 14.989C15.375 13.5334 14.1784 12.375 12.7292 12.375H11.2708C10.626 12.375 10.125 11.8643 10.125 11.261C10.125 10.6577 10.626 10.147 11.2708 10.147H14.625C15.0392 10.147 15.375 9.81128 15.375 9.39705C15.375 8.98286 15.0392 8.64705 14.625 8.64705H12.75V8.25Z" fill="#000"/>
<path fill-rule="evenodd" clip-rule="evenodd" d="M0.75 4.51972C0.75 3.05909 1.93409 1.875 3.39474 1.875H20.6053C22.0659 1.875 23.25 3.05909 23.25 4.51972C23.25 7.08176 21.2656 9.18026 18.75 9.36221V18.75C18.75 20.5013 17.5112 22.125 15.75 22.125H8.25C6.48885 22.125 5.25 20.5013 5.25 18.75V9.36221C2.73438 9.18026 0.75 7.08176 0.75 4.51972ZM21.75 4.51972C21.75 6.25279 20.436 7.67899 18.75 7.8564V6.375H19.5C19.9142 6.375 20.25 6.03923 20.25 5.625C20.25 5.21077 19.9142 4.875 19.5 4.875H4.5C4.08577 4.875 3.75 5.21077 3.75 5.625C3.75 6.03923 4.08577 6.375 4.5 6.375H5.25V7.8564C3.56395 7.67899 2.25 6.25279 2.25 4.51972C2.25 3.88751 2.76252 3.375 3.39474 3.375H20.6053C21.2375 3.375 21.75 3.88751 21.75 4.51972ZM6.75 18.75V6.375H17.25V18.75C17.25 19.8982 16.4741 20.625 15.75 20.625H8.25C7.52588 20.625 6.75 19.8982 6.75 18.75Z" fill="#000"/>
</svg>
