<svg width="20" height="20" viewBox="0 0 20 20" fill="none" xmlns="http://www.w3.org/2000/svg">
<path d="M7.50019 18.3333L7.29102 15.4092C7.26409 15.037 7.31414 14.6632 7.43807 14.3112C7.56199 13.9593 7.75712 13.6366 8.01129 13.3634C8.26545 13.0901 8.5732 12.8722 8.91532 12.7232C9.25745 12.5742 9.62661 12.4973 9.99977 12.4973C10.3729 12.4973 10.7421 12.5742 11.0842 12.7232C11.4263 12.8722 11.7341 13.0901 11.9882 13.3634C12.2424 13.6366 12.4375 13.9593 12.5615 14.3112C12.6854 14.6632 12.7355 15.037 12.7085 15.4092L12.5002 18.3333" stroke="black" stroke-width="1.2" stroke-linecap="round" stroke-linejoin="round"/>
<path d="M1.96012 11.0117C1.66512 9.09675 1.51845 8.14008 1.88012 7.29091C2.24178 6.44175 3.04512 5.86175 4.65095 4.70091L5.85095 3.83341C7.84845 2.38925 8.84762 1.66675 10.0009 1.66675C11.1526 1.66675 12.1509 2.38925 14.1493 3.83341L15.3493 4.70091C16.9551 5.86175 17.7576 6.44258 18.1201 7.29091C18.4818 8.14008 18.3351 9.09675 18.0409 11.0109L17.7901 12.6442C17.3734 15.3576 17.1643 16.7142 16.191 17.5242C15.2176 18.3342 13.7951 18.3334 10.9501 18.3334H9.05012C6.20428 18.3334 4.78178 18.3334 3.80845 17.5242C2.83512 16.7142 2.62678 15.3576 2.21012 12.6434L1.96012 11.0117Z" stroke="black" stroke-width="1.2" stroke-linecap="round" stroke-linejoin="round"/>
</svg>
